<svg xmlns="http://www.w3.org/2000/svg" xmlns:xlink="http://www.w3.org/1999/xlink" width="26" height="24" viewBox="0 0 26 24">
  <defs>
    <clipPath id="clip-path">
      <rect id="Rectangle_20" data-name="Rectangle 20" width="26" height="24" transform="translate(-0.401 0.03)" fill="#b56576"/>
    </clipPath>
  </defs>
  <g id="Mask_Group_10" data-name="Mask Group 10" transform="translate(0.401 -0.03)" clip-path="url(#clip-path)">
    <g id="twitter" transform="translate(0.444 2.145)">
      <g id="Group_40" data-name="Group 40">
        <path id="Path_14" data-name="Path 14" d="M24.391,6a10.425,10.425,0,0,1-2.881.79,4.972,4.972,0,0,0,2.2-2.764,9.993,9.993,0,0,1-3.171,1.21,5,5,0,0,0-8.649,3.419A5.149,5.149,0,0,0,12,9.8,14.153,14.153,0,0,1,1.7,4.568a5,5,0,0,0,1.537,6.683,4.938,4.938,0,0,1-2.259-.616v.055A5.023,5.023,0,0,0,4.982,15.6a4.991,4.991,0,0,1-1.311.165,4.421,4.421,0,0,1-.947-.085A5.048,5.048,0,0,0,7.4,19.165,10.047,10.047,0,0,1,1.2,21.3,9.365,9.365,0,0,1,0,21.229a14.077,14.077,0,0,0,7.671,2.244A14.134,14.134,0,0,0,21.9,9.245c0-.221-.008-.434-.018-.646A9.975,9.975,0,0,0,24.391,6Z" transform="translate(0 -3.656)" fill="#b56576"/>
      </g>
    </g>
  </g>
</svg>
