<svg xmlns="http://www.w3.org/2000/svg" width="211.503" height="233.875" viewBox="0 0 211.503 233.875">
  <path id="Path_11" data-name="Path 11" d="M209.288,312.48l-20.43,45.55s19.072,13.515,52.5,21.8,50.767,5.693,50.767,5.693,29.559.534,51.765-5.827a107.727,107.727,0,0,0,37.866-20.284s17.628-15.836,17.479-45.142-17.584-47.7-39.685-57.341-29.727-9.58-82.762-17.3c0,0-24.2-2.9-20.363-21.091s33.47-16.828,33.47-16.828a220.221,220.221,0,0,1,28.692,3.623c14.825,2.954,32.029,9.458,32.029,9.458s12.683,6.27,24.287-2.485,18.169-33.481,18.169-33.481-25.832-12.843-52.585-19.36-46.749-6.216-46.749-6.216-50.276-3.2-78.55,23.254S195.72,237.08,195.72,237.08s2.018,26.313,31.112,40.9S292.8,293.545,312.3,297.385s19.629,6.254,19.629,6.254,7.084,3.362,6.408,12.652-10.1,15.242-10.1,15.242-23.327,9.985-57.865,3.99S209.288,312.48,209.288,312.48Z" transform="translate(-188.234 -152.552)" fill="#fff" stroke="#fff" stroke-width="1"/>
</svg>
