<svg xmlns="http://www.w3.org/2000/svg" xmlns:xlink="http://www.w3.org/1999/xlink" width="1080" zoomAndPan="magnify" viewBox="0 0 810 809.999993" height="1080" preserveAspectRatio="xMidYMid meet" version="1.0"><path fill="#e56b6f" d="M 15.335938 419.636719 L 196.574219 419.636719 L 196.574219 600.878906 C 196.664062 602.707031 197.058594 604.46875 197.761719 606.160156 C 198.460938 607.855469 199.429688 609.378906 200.660156 610.734375 L 395.839844 805.914062 C 396.816406 806.890625 397.910156 807.703125 399.125 808.351562 C 400.34375 809 401.625 809.460938 402.976562 809.730469 C 404.328125 810 405.691406 810.066406 407.0625 809.929688 C 408.4375 809.792969 409.757812 809.464844 411.03125 808.9375 C 412.304688 808.40625 413.476562 807.707031 414.542969 806.832031 C 415.605469 805.957031 416.523438 804.945312 417.289062 803.800781 C 418.054688 802.65625 418.636719 801.421875 419.039062 800.105469 C 419.4375 798.785156 419.636719 797.4375 419.636719 796.058594 L 419.636719 614.820312 L 600.878906 614.820312 C 602.707031 614.730469 604.46875 614.335938 606.160156 613.632812 C 607.855469 612.933594 609.378906 611.964844 610.734375 610.734375 L 805.914062 415.554688 C 806.867188 414.570312 807.660156 413.472656 808.289062 412.257812 C 808.921875 411.042969 809.363281 409.761719 809.621094 408.417969 C 809.878906 407.074219 809.933594 405.71875 809.796875 404.359375 C 809.65625 402.996094 809.324219 401.683594 808.800781 400.417969 C 808.277344 399.152344 807.582031 397.992188 806.71875 396.929688 C 805.855469 395.867188 804.855469 394.953125 803.726562 394.183594 C 802.59375 393.414062 801.375 392.820312 800.070312 392.40625 C 798.765625 391.996094 797.425781 391.777344 796.058594 391.753906 L 614.820312 391.753906 L 614.820312 210.515625 C 614.730469 208.6875 614.335938 206.925781 613.632812 205.234375 C 612.933594 203.539062 611.964844 202.015625 610.734375 200.660156 L 415.554688 5.480469 C 414.570312 4.527344 413.472656 3.734375 412.257812 3.101562 C 411.042969 2.472656 409.761719 2.027344 408.417969 1.769531 C 407.074219 1.511719 405.71875 1.453125 404.355469 1.59375 C 402.996094 1.734375 401.679688 2.066406 400.417969 2.589844 C 399.152344 3.113281 397.988281 3.808594 396.925781 4.671875 C 395.863281 5.535156 394.949219 6.535156 394.179688 7.667969 C 393.410156 8.800781 392.820312 10.019531 392.40625 11.324219 C 391.992188 12.628906 391.777344 13.964844 391.753906 15.335938 L 391.753906 196.574219 L 210.515625 196.574219 C 208.6875 196.664062 206.925781 197.058594 205.234375 197.761719 C 203.539062 198.460938 202.015625 199.429688 200.660156 200.660156 L 5.480469 395.839844 C 4.527344 396.824219 3.734375 397.921875 3.105469 399.136719 C 2.472656 400.351562 2.03125 401.632812 1.773438 402.976562 C 1.515625 404.320312 1.457031 405.675781 1.597656 407.035156 C 1.738281 408.398438 2.070312 409.710938 2.59375 410.976562 C 3.117188 412.242188 3.8125 413.402344 4.675781 414.464844 C 5.539062 415.527344 6.539062 416.441406 7.667969 417.210938 C 8.800781 417.980469 10.019531 418.574219 11.324219 418.984375 C 12.628906 419.398438 13.96875 419.617188 15.335938 419.636719 Z M 224.457031 419.636719 L 372.039062 419.636719 L 224.457031 567.222656 Z M 391.753906 762.402344 L 230.230469 600.878906 L 391.753906 439.351562 Z M 419.636719 586.9375 L 419.636719 439.351562 L 567.222656 586.9375 Z M 600.878906 581.164062 L 439.351562 419.636719 L 762.402344 419.636719 Z M 439.351562 391.753906 L 586.9375 244.171875 L 586.9375 391.753906 Z M 419.636719 48.992188 L 581.164062 210.515625 L 419.636719 372.039062 Z M 391.753906 224.457031 L 391.753906 372.039062 L 244.171875 224.457031 Z M 210.515625 230.230469 L 372.039062 391.753906 L 48.992188 391.753906 Z M 210.515625 230.230469 " fill-opacity="1" fill-rule="nonzero"/></svg>