<svg xmlns="http://www.w3.org/2000/svg" xmlns:xlink="http://www.w3.org/1999/xlink" width="1080" zoomAndPan="magnify" viewBox="0 0 810 809.999993" height="1080" preserveAspectRatio="xMidYMid meet" version="1.0"><defs><clipPath id="id1"><path d="M 40 167.890625 L 768 167.890625 L 768 416 L 40 416 Z M 40 167.890625 " clip-rule="nonzero"/></clipPath><clipPath id="id2"><path d="M 7 463 L 801 463 L 801 641.890625 L 7 641.890625 Z M 7 463 " clip-rule="nonzero"/></clipPath></defs><g clip-path="url(#id1)"><path fill="#e56b6f" d="M 230.878906 340.003906 C 230.878906 349.761719 231.933594 357.671875 233.78125 363.472656 C 235.894531 369.273438 238.527344 375.597656 242.222656 382.453125 C 243.542969 384.5625 244.066406 386.671875 244.066406 388.519531 C 244.066406 391.152344 242.484375 393.789062 239.058594 396.429688 L 222.4375 407.5 C 220.066406 409.082031 217.691406 409.875 215.578125 409.875 C 212.945312 409.875 210.304688 408.554688 207.667969 406.183594 C 203.976562 402.230469 200.808594 398.007812 198.171875 393.789062 C 195.535156 389.308594 192.894531 384.296875 189.996094 378.234375 C 169.421875 402.488281 143.574219 414.621094 112.449219 414.621094 C 90.292969 414.621094 72.621094 408.289062 59.695312 395.636719 C 46.773438 382.984375 40.179688 366.105469 40.179688 345.015625 C 40.179688 322.605469 48.089844 304.414062 64.179688 290.703125 C 80.269531 276.996094 101.636719 270.140625 128.804688 270.140625 C 137.769531 270.140625 147.003906 270.929688 156.761719 272.25 C 166.523438 273.566406 176.542969 275.675781 187.097656 278.050781 L 187.097656 258.804688 C 187.097656 238.765625 182.875 224.792969 174.695312 216.617188 C 166.257812 208.445312 152.011719 204.492188 131.703125 204.492188 C 122.472656 204.492188 112.976562 205.546875 103.214844 207.917969 C 93.457031 210.289062 83.960938 213.191406 74.730469 216.882812 C 70.511719 218.726562 67.34375 219.78125 65.496094 220.3125 C 63.652344 220.835938 62.332031 221.101562 61.277344 221.101562 C 57.585938 221.101562 55.738281 218.464844 55.738281 212.925781 L 55.738281 200.007812 C 55.738281 195.789062 56.265625 192.625 57.585938 190.78125 C 58.902344 188.933594 61.277344 187.089844 64.972656 185.246094 C 74.203125 180.5 85.28125 176.542969 98.207031 173.378906 C 111.128906 169.953125 124.84375 168.371094 139.351562 168.371094 C 170.742188 168.371094 193.691406 175.488281 208.460938 189.726562 C 222.96875 203.964844 230.355469 225.582031 230.355469 254.585938 L 230.355469 340.007812 L 230.878906 340.007812 Z M 123.789062 380.082031 C 132.496094 380.082031 141.464844 378.5 150.957031 375.335938 C 160.453125 372.171875 168.894531 366.371094 176.015625 358.460938 C 180.238281 353.453125 183.402344 347.914062 184.984375 341.589844 C 186.566406 335.261719 187.621094 327.613281 187.621094 318.648438 L 187.621094 307.578125 C 179.972656 305.734375 171.796875 304.152344 163.355469 303.097656 C 154.914062 302.042969 146.738281 301.511719 138.5625 301.511719 C 120.890625 301.511719 107.964844 304.941406 99.261719 312.058594 C 90.554688 319.179688 86.335938 329.195312 86.335938 342.378906 C 86.335938 354.769531 89.5 363.996094 96.09375 370.328125 C 102.425781 376.917969 111.65625 380.082031 123.789062 380.082031 Z M 335.609375 408.554688 C 330.851562 408.554688 327.675781 407.765625 325.558594 405.917969 C 323.476562 404.335938 321.609375 400.644531 320.023438 395.636719 L 258.046875 191.835938 C 256.464844 186.5625 255.671875 183.136719 255.671875 181.289062 C 255.671875 177.070312 257.78125 174.699219 262.003906 174.699219 L 287.855469 174.699219 C 292.867188 174.699219 296.296875 175.488281 298.140625 177.335938 C 300.25 178.917969 301.835938 182.609375 303.414062 187.617188 L 347.714844 362.15625 L 388.882812 187.617188 C 390.1875 182.34375 391.777344 178.917969 393.890625 177.335938 C 396.007812 175.753906 399.679688 174.699219 404.441406 174.699219 L 425.535156 174.699219 C 430.546875 174.699219 433.96875 175.492188 436.085938 177.335938 C 438.199219 178.917969 440.035156 182.609375 441.09375 187.617188 L 482.789062 364.265625 L 528.40625 187.617188 C 529.992188 182.347656 531.828125 178.917969 533.695312 177.335938 C 535.78125 175.753906 539.234375 174.699219 543.964844 174.699219 L 568.515625 174.699219 C 572.714844 174.699219 575.082031 176.808594 575.082031 181.292969 C 575.082031 182.609375 574.832031 183.929688 574.582031 185.511719 C 574.304688 187.09375 573.773438 189.203125 572.714844 192.101562 L 509.144531 395.902344 C 507.558594 401.179688 505.722656 404.605469 503.605469 406.183594 C 501.492188 407.769531 498.070312 408.824219 493.585938 408.824219 L 470.902344 408.824219 C 465.894531 408.824219 462.472656 408.03125 460.355469 406.183594 C 458.238281 404.339844 456.402344 400.914062 455.347656 395.640625 L 414.460938 225.585938 L 373.851562 395.378906 C 372.515625 400.648438 370.925781 404.078125 368.84375 405.921875 C 366.726562 407.769531 363.023438 408.558594 358.292969 408.558594 L 335.609375 408.558594 Z M 674.527344 415.675781 C 660.804688 415.675781 647.113281 414.089844 633.921875 410.929688 C 620.730469 407.765625 610.429688 404.335938 603.582031 400.382812 C 599.351562 398.007812 596.457031 395.375 595.398438 393 C 594.34375 390.628906 593.8125 387.988281 593.8125 385.617188 L 593.8125 372.171875 C 593.8125 366.636719 595.929688 363.996094 599.878906 363.996094 C 601.46875 363.996094 603.054688 364.261719 604.640625 364.789062 C 606.226562 365.316406 608.59375 366.371094 611.238281 367.425781 C 620.199219 371.382812 629.96875 374.542969 640.238281 376.652344 C 650.785156 378.761719 661.085938 379.816406 671.632812 379.816406 C 688.25 379.816406 701.164062 376.917969 710.15625 371.117188 C 719.117188 365.316406 723.847656 356.882812 723.847656 346.070312 C 723.847656 338.691406 721.484375 332.625 716.753906 327.613281 C 711.992188 322.605469 703.03125 318.125 690.085938 313.902344 L 651.84375 302.042969 C 632.582031 295.976562 618.363281 287.011719 609.652344 275.148438 C 600.9375 263.550781 596.457031 250.628906 596.457031 236.917969 C 596.457031 225.847656 598.824219 216.089844 603.582031 207.65625 C 608.34375 199.21875 614.660156 191.835938 622.5625 186.035156 C 630.5 179.972656 639.460938 175.488281 650.007812 172.324219 C 660.558594 169.160156 671.632812 167.84375 683.242188 167.84375 C 689.027344 167.84375 695.097656 168.105469 700.914062 168.898438 C 706.984375 169.6875 712.519531 170.742188 718.058594 171.796875 C 723.320312 173.117188 728.328125 174.433594 733.089844 176.015625 C 737.851562 177.597656 741.523438 179.179688 744.167969 180.761719 C 747.871094 182.871094 750.515625 184.980469 752.070312 187.355469 C 753.65625 189.464844 754.464844 192.363281 754.464844 196.054688 L 754.464844 208.445312 C 754.464844 213.980469 752.351562 216.882812 748.398438 216.882812 C 746.28125 216.882812 742.859375 215.828125 738.378906 213.71875 C 723.320312 206.863281 706.453125 203.433594 687.722656 203.433594 C 672.691406 203.433594 660.804688 205.808594 652.652344 210.820312 C 644.46875 215.828125 640.238281 223.472656 640.238281 234.28125 C 640.238281 241.664062 642.882812 247.992188 648.171875 253.003906 C 653.429688 258.011719 663.203125 263.019531 677.171875 267.503906 L 714.636719 279.367188 C 733.617188 285.429688 747.339844 293.867188 755.523438 304.675781 C 763.675781 315.488281 767.660156 327.878906 767.660156 341.589844 C 767.660156 352.925781 765.261719 363.207031 760.78125 372.171875 C 756.050781 381.136719 749.703125 389.042969 741.519531 395.375 C 733.367188 401.964844 723.597656 406.710938 712.242188 410.136719 C 700.386719 413.828125 688 415.675781 674.527344 415.675781 Z M 674.527344 415.675781 " fill-opacity="1" fill-rule="nonzero"/></g><g clip-path="url(#id2)"><path fill="#e56b6f" d="M 724.375 543.792969 C 637.59375 607.863281 511.542969 641.890625 403.132812 641.890625 C 251.191406 641.890625 114.296875 585.71875 10.914062 492.382812 C 2.722656 485.011719 10.109375 474.996094 19.867188 480.78125 C 131.703125 545.660156 269.65625 584.941406 412.335938 584.941406 C 508.609375 584.941406 614.402344 564.914062 711.703125 523.765625 C 726.234375 517.171875 738.621094 533.25 724.367188 543.792969 Z M 760.535156 502.675781 C 749.457031 488.433594 687.191406 495.835938 658.96875 499.253906 C 650.539062 500.3125 649.199219 492.910156 656.855469 487.375 C 706.453125 452.582031 787.945312 462.605469 797.4375 474.203125 C 806.960938 486.066406 794.824219 567.523438 748.398438 606.558594 C 741.273438 612.625 734.394531 609.453125 737.570312 601.550781 C 748.117188 575.457031 771.609375 516.640625 760.535156 502.675781 Z M 760.535156 502.675781 " fill-opacity="1" fill-rule="nonzero"/></g></svg>