<svg xmlns="http://www.w3.org/2000/svg" xmlns:xlink="http://www.w3.org/1999/xlink" width="1080" zoomAndPan="magnify" viewBox="0 0 810 809.999993" height="1080" preserveAspectRatio="xMidYMid meet" version="1.0"><defs><clipPath id="id1"><path d="M 2 13.253906 L 808 13.253906 L 808 795 L 2 795 Z M 2 13.253906 " clip-rule="nonzero"/></clipPath></defs><g clip-path="url(#id1)"><path fill="#e56b6f" d="M 402.484375 13.226562 C 395.210938 13.652344 388.3125 15.484375 381.78125 18.710938 L 101.425781 152.484375 C 86.785156 159.453125 76.144531 172.714844 72.496094 188.519531 L 3.875 488.75 C 0.605469 502.839844 3.246094 517.613281 11.421875 529.691406 C 12.375 531.152344 13.382812 532.558594 14.4375 533.917969 L 208.132812 774.839844 C 218.371094 787.421875 233.742188 794.640625 249.941406 794.566406 L 560.609375 794.566406 C 576.859375 794.59375 592.253906 787.019531 602.46875 774.613281 L 796.0625 533.640625 C 806.226562 521.058594 810.023438 504.453125 806.125 488.699219 L 737.050781 188.21875 C 733.402344 172.414062 722.710938 159.152344 708.121094 152.183594 L 428.21875 18.738281 C 424.183594 16.746094 419.96875 15.285156 415.570312 14.355469 C 411.171875 13.421875 406.726562 13.046875 402.234375 13.226562 Z M 402.484375 13.226562 " fill-opacity="1" fill-rule="nonzero"/></g><path stroke-linecap="butt" transform="matrix(25.155277, 0, 0, 25.163931, 2.515531, 1.248738)" fill-opacity="1" fill="#ffffff" fill-rule="nonzero" stroke-linejoin="miter" d="M 16.00202 4.541986 C 15.617999 4.568997 15.326994 4.897934 15.347026 5.281978 L 15.347026 5.469964 C 15.365039 5.682942 15.397028 5.894058 15.438955 6.103 C 15.500448 6.50412 15.522498 6.907569 15.504951 7.313035 C 15.467062 7.446069 15.390972 7.566063 15.28693 7.657961 L 15.272023 7.940017 C 14.867038 7.974013 14.465004 8.035951 14.069026 8.125985 C 12.402968 8.501958 10.885984 9.365979 9.714976 10.610941 L 9.47506 10.440962 C 9.343067 10.481012 9.200981 10.465954 9.080013 10.401067 C 8.75469 10.160147 8.45561 9.890198 8.182929 9.591066 C 8.046278 9.427607 7.90062 9.272685 7.745955 9.125991 L 7.597968 9.008014 C 7.465976 8.901991 7.304013 8.840984 7.135062 8.833068 C 7.084594 8.830273 7.034593 8.833533 6.984901 8.842692 C 6.93521 8.851851 6.887382 8.866753 6.841107 8.887244 C 6.794987 8.907734 6.751973 8.933348 6.711754 8.964083 C 6.67169 8.994819 6.635819 9.029747 6.603986 9.06902 C 6.378045 9.386004 6.451961 9.825001 6.767967 10.05195 L 6.906016 10.16201 C 7.083818 10.280297 7.267831 10.388028 7.458056 10.485048 C 7.811952 10.682037 8.145971 10.913023 8.456076 11.184989 C 8.536825 11.300327 8.581236 11.428393 8.589 11.569034 L 8.807021 11.768972 C 7.629957 13.535048 7.147019 15.673991 7.44905 17.775058 L 7.16907 17.855003 C 7.09593 17.970961 6.999032 18.069999 6.883034 18.142958 C 6.491404 18.247585 6.093407 18.313248 5.689044 18.339948 C 5.47475 18.344294 5.261387 18.361059 5.048957 18.389932 L 4.871931 18.429982 L 4.852055 18.429982 C 4.790562 18.43852 4.731553 18.455285 4.674719 18.480122 C 4.617884 18.505115 4.565708 18.537248 4.51788 18.576677 C 4.469897 18.616261 4.428436 18.661433 4.393186 18.712349 C 4.357781 18.763421 4.33014 18.818218 4.310108 18.876895 C 4.290076 18.935573 4.27843 18.995803 4.275014 19.057741 C 4.271753 19.119678 4.276877 19.18084 4.290542 19.24138 C 4.304207 19.301921 4.325947 19.359357 4.355607 19.413843 C 4.385111 19.46833 4.421603 19.517694 4.464928 19.561935 C 4.508718 19.606176 4.557633 19.643432 4.611828 19.673857 C 4.665867 19.704438 4.723168 19.726946 4.783574 19.741538 C 4.84398 19.75613 4.905162 19.762184 4.967277 19.7597 C 5.029391 19.757217 5.089952 19.746351 5.148961 19.726946 L 5.162005 19.726946 L 5.341981 19.706922 C 5.544939 19.647002 5.744946 19.572956 5.939985 19.488976 C 6.314999 19.339021 6.70399 19.223994 7.101986 19.149017 C 7.240035 19.156934 7.372028 19.20397 7.483989 19.284069 L 7.784 19.233929 C 8.434026 21.251015 9.800072 22.959966 11.624056 24.036966 L 11.502001 24.292012 C 11.558059 24.409057 11.579023 24.538987 11.561942 24.667985 C 11.397028 25.050011 11.195002 25.416048 10.958968 25.760042 C 10.82946 25.930798 10.710045 26.108383 10.601035 26.292954 L 10.515938 26.473023 C 10.485192 26.526423 10.46221 26.583083 10.446992 26.643003 C 10.431774 26.702922 10.425096 26.763618 10.426649 26.8254 C 10.428357 26.887028 10.438296 26.947413 10.456619 27.006401 C 10.474943 27.065389 10.500876 27.120652 10.534573 27.172499 C 10.568114 27.224347 10.608178 27.270606 10.654608 27.311277 C 10.701039 27.351948 10.752128 27.385633 10.80772 27.412178 C 10.863467 27.438878 10.921855 27.45735 10.982571 27.467906 C 11.043443 27.478307 11.104626 27.48048 11.165963 27.47396 C 11.227612 27.46713 11.286931 27.451917 11.344387 27.428477 C 11.401687 27.405037 11.454795 27.374301 11.503554 27.336114 C 11.552469 27.298082 11.595173 27.253996 11.631665 27.204011 C 11.668312 27.154027 11.697351 27.100006 11.718935 27.041949 L 11.802013 26.87197 C 11.877948 26.672031 11.941925 26.468056 11.993946 26.262063 C 12.170971 25.824929 12.266938 25.355973 12.509028 25.066 C 12.589932 24.989936 12.685277 24.943211 12.795064 24.92598 L 12.94507 24.652927 C 13.189644 24.746998 13.437946 24.829736 13.690129 24.900988 C 13.942158 24.972395 14.196981 25.032159 14.4546 25.080281 C 14.712219 25.128403 14.97139 25.164727 15.23227 25.189254 C 15.493149 25.213625 15.75465 25.226199 16.016617 25.22682 C 16.278584 25.227441 16.540084 25.216264 16.801119 25.19298 C 17.062154 25.16985 17.321481 25.134767 17.57941 25.087887 C 17.837184 25.041007 18.092318 24.982485 18.344813 24.912475 C 18.597152 24.84231 18.845919 24.760813 19.090959 24.667985 L 19.224039 24.923031 C 19.360069 24.943056 19.481968 25.018033 19.563959 25.127937 C 19.75201 25.486058 19.904034 25.860943 20.020033 26.247937 C 20.072985 26.455327 20.137584 26.658992 20.213984 26.85893 L 20.297062 27.029065 C 20.318802 27.086811 20.348151 27.140522 20.384798 27.190351 C 20.421446 27.240025 20.464304 27.283801 20.513064 27.321677 C 20.561979 27.359709 20.614931 27.390135 20.672232 27.41342 C 20.729532 27.436549 20.788851 27.451607 20.850344 27.458437 C 20.911837 27.465112 20.97302 27.463404 21.033892 27.453314 C 21.094919 27.443224 21.153306 27.424907 21.209209 27.398517 C 21.265112 27.372283 21.316511 27.338753 21.363097 27.298237 C 21.409838 27.257722 21.450057 27.211618 21.484064 27.159926 C 21.517606 27.108078 21.543383 27.052505 21.561707 26.993361 C 21.579876 26.934218 21.589659 26.873678 21.591056 26.81174 C 21.592454 26.749958 21.585466 26.688951 21.569937 26.629032 C 21.554564 26.569112 21.531116 26.512452 21.500059 26.459053 L 21.412944 26.278983 C 21.303933 26.095033 21.184519 25.918069 21.055011 25.747934 C 20.825033 25.416048 20.627044 25.061964 20.454987 24.690959 C 20.438838 24.622502 20.436508 24.553578 20.44831 24.484034 C 20.460112 24.414646 20.485113 24.35038 20.523002 24.290926 C 20.480299 24.203685 20.443341 24.113961 20.411973 24.022064 C 22.232075 22.936991 23.592065 21.221987 24.234947 19.201952 L 24.518964 19.251936 C 24.620987 19.158952 24.754998 19.110054 24.89196 19.113935 C 25.289025 19.189999 25.678015 19.314029 26.053962 19.454048 C 26.249 19.543928 26.449008 19.619992 26.651966 19.683947 C 26.699949 19.696987 26.769983 19.708008 26.824022 19.721048 L 26.837066 19.721048 C 26.896075 19.739986 26.956481 19.750697 27.01844 19.753025 C 27.080399 19.755199 27.141581 19.748989 27.201832 19.734242 C 27.262083 19.719651 27.319228 19.696987 27.373112 19.666406 C 27.427151 19.635825 27.475911 19.598414 27.519391 19.554328 C 27.563026 19.510242 27.599829 19.461034 27.629799 19.406703 C 27.659614 19.352371 27.681664 19.295091 27.69564 19.234705 C 27.709616 19.174165 27.715051 19.113004 27.7121 19.051066 C 27.70915 18.989128 27.697814 18.928743 27.677937 18.870065 C 27.65775 18.811232 27.629954 18.756435 27.594549 18.705364 C 27.558989 18.654448 27.517217 18.609275 27.469234 18.569846 C 27.421251 18.530417 27.368764 18.49844 27.311774 18.473602 C 27.254784 18.448921 27.195621 18.432311 27.133972 18.423928 L 26.940021 18.377979 C 26.72759 18.348951 26.514228 18.332341 26.299934 18.327995 C 25.896036 18.302071 25.496021 18.235942 25.105944 18.131005 C 24.986063 18.063945 24.886059 17.963975 24.818044 17.84305 L 24.548003 17.76295 C 24.583563 17.503247 24.607322 17.242301 24.619279 16.980425 C 24.631081 16.718548 24.631081 16.456516 24.619124 16.19464 C 24.607322 15.932608 24.583408 15.671818 24.547847 15.41196 C 24.512132 15.152256 24.46477 14.894571 24.405761 14.639214 C 24.346597 14.383702 24.276098 14.13145 24.194107 13.882302 C 24.111961 13.63331 24.018945 13.388509 23.914593 13.147899 C 23.810241 12.90729 23.69533 12.671958 23.569549 12.441904 C 23.443923 12.211694 23.308048 11.987694 23.16208 11.770059 L 23.397958 11.551958 C 23.38802 11.415043 23.433053 11.27906 23.522031 11.173968 C 23.829031 10.910073 24.161963 10.67707 24.511977 10.478062 C 24.702201 10.380887 24.886215 10.273311 25.064017 10.155024 L 25.209985 10.037048 C 25.263714 10.003673 25.311852 9.963468 25.354245 9.916432 C 25.396483 9.869552 25.431577 9.81755 25.459218 9.760735 C 25.486859 9.703764 25.506114 9.644155 25.516829 9.581907 C 25.527699 9.519504 25.529562 9.456945 25.522575 9.394076 C 25.515587 9.331207 25.500058 9.270512 25.475989 9.211989 C 25.451764 9.153622 25.420086 9.099601 25.380644 9.050082 C 25.341201 9.000718 25.295702 8.957564 25.243992 8.921084 C 25.192438 8.884449 25.13669 8.855731 25.07706 8.83493 C 25.017276 8.814285 24.955938 8.802176 24.892737 8.798761 C 24.829691 8.795346 24.767266 8.800779 24.705773 8.815061 C 24.644124 8.829187 24.585737 8.851695 24.530611 8.882587 C 24.475329 8.913323 24.425482 8.951199 24.381071 8.996061 L 24.232928 9.114038 C 24.078419 9.260577 23.932762 9.415654 23.795955 9.578958 C 23.53197 9.88104 23.240033 10.155956 22.92294 10.401999 C 22.7925 10.455088 22.657868 10.469835 22.519042 10.445929 L 22.266082 10.625998 C 20.805933 9.096031 18.838931 8.14601 16.73093 7.956006 C 16.73093 7.856037 16.718042 7.705927 16.716023 7.659047 C 16.602975 7.580965 16.523935 7.462058 16.498002 7.327006 C 16.484182 6.92216 16.509493 6.519799 16.573937 6.120076 C 16.616951 5.910047 16.647076 5.700018 16.666021 5.487039 L 16.666021 5.286945 C 16.686053 4.903056 16.395979 4.573964 16.011027 4.546954 Z M 15.167982 9.707956 L 14.967974 13.200989 L 14.953066 13.200989 C 14.942973 13.417072 14.815949 13.601022 14.621066 13.705027 C 14.426027 13.809033 14.194963 13.777986 14.021043 13.651007 L 11.156025 11.621036 C 11.382897 11.398123 11.624056 11.19213 11.879656 11.002747 C 12.1351 10.813519 12.402502 10.642764 12.681861 10.490636 C 12.961064 10.338664 13.249584 10.206561 13.547111 10.094639 C 13.844794 9.982561 14.148688 9.891751 14.458948 9.822051 C 14.692963 9.772067 14.928997 9.734035 15.165963 9.707956 Z M 16.836059 9.707956 C 18.34093 9.89501 19.742072 10.571046 20.825964 11.632058 L 17.987966 13.648989 C 17.81296 13.789008 17.573044 13.81695 17.36993 13.721016 C 17.166972 13.624928 17.036998 13.420953 17.034048 13.196953 Z M 10.116078 12.935076 L 12.736055 15.273027 L 12.736055 15.287929 C 12.89895 15.429967 12.970071 15.651017 12.921932 15.861977 C 12.873949 16.072938 12.711986 16.239968 12.50499 16.296938 L 12.50499 16.307028 L 9.143059 17.273969 C 9.122406 17.086293 9.109518 16.897997 9.104393 16.709234 C 9.099424 16.520472 9.102064 16.331865 9.112623 16.143258 C 9.123183 15.954651 9.141351 15.76682 9.167439 15.579765 C 9.193372 15.392866 9.227069 15.207208 9.26853 15.022793 C 9.309836 14.838532 9.358751 14.65629 9.415119 14.476065 C 9.471488 14.295841 9.53531 14.118255 9.606276 13.943309 C 9.677397 13.768362 9.755505 13.596675 9.840757 13.428093 C 9.926009 13.259666 10.018093 13.094965 10.11701 12.933989 Z M 21.869017 12.935076 C 22.665011 14.230022 23.017043 15.748968 22.871075 17.262016 L 19.504019 16.29197 L 19.504019 16.278931 C 19.294073 16.221961 19.133974 16.054931 19.087077 15.843971 C 19.040026 15.63301 19.11006 15.413978 19.272954 15.270077 L 21.873055 12.942993 Z M 15.465043 15.454959 L 16.536979 15.454959 L 17.191973 16.287003 L 16.954076 17.327058 L 15.990995 17.78996 L 15.026051 17.327058 L 14.799023 16.287003 Z M 18.899027 18.293068 C 18.944059 18.287945 18.99903 18.287945 19.03397 18.293068 L 22.501029 18.877982 C 22.00101 20.31807 21.014015 21.547974 19.726077 22.371015 L 18.385963 19.126974 C 18.376801 19.105242 18.369037 19.083199 18.362515 19.060535 C 18.355993 19.037871 18.350713 19.015052 18.346987 18.991767 C 18.34326 18.968482 18.340775 18.945198 18.339843 18.921602 C 18.338912 18.898162 18.339222 18.874567 18.341086 18.851127 C 18.342949 18.827687 18.34621 18.804402 18.350713 18.781272 C 18.355372 18.758143 18.361428 18.735479 18.368727 18.713126 C 18.376025 18.690772 18.384721 18.668884 18.394659 18.647618 C 18.404597 18.626196 18.415778 18.60555 18.428201 18.585525 C 18.440624 18.5655 18.454289 18.546406 18.468886 18.528089 C 18.483638 18.509616 18.499477 18.49223 18.516248 18.475776 C 18.533019 18.459321 18.550721 18.443798 18.569511 18.429517 C 18.588145 18.41508 18.607556 18.401885 18.627743 18.389932 C 18.648085 18.377824 18.668893 18.367113 18.690478 18.357489 C 18.711907 18.34802 18.733958 18.339792 18.756474 18.332962 C 18.778991 18.325977 18.801818 18.320388 18.824955 18.316352 C 18.848093 18.312161 18.871541 18.309367 18.894989 18.30797 Z M 13.075975 18.30797 C 13.271946 18.311074 13.453008 18.411975 13.56 18.576056 C 13.666992 18.739981 13.684073 18.945974 13.607052 19.126043 L 13.607052 19.138927 L 12.275013 22.357044 C 10.999963 21.540058 10.032069 20.325056 9.516987 18.900025 L 12.954076 18.316973 C 12.991966 18.312937 13.030942 18.312937 13.070074 18.316973 Z M 15.97997 19.708008 C 16.03463 19.706301 16.088514 19.712044 16.141466 19.725239 C 16.194574 19.738434 16.244731 19.758769 16.292093 19.785935 C 16.339611 19.8131 16.382314 19.84632 16.420515 19.885283 C 16.458715 19.924402 16.490859 19.968022 16.516947 20.015989 L 16.529991 20.015989 L 18.224 23.072975 L 17.546956 23.273069 C 16.300945 23.558075 14.999963 23.491015 13.789046 23.079029 L 15.488957 20.022043 C 15.592066 19.841973 15.781981 19.732069 15.988976 19.726946 Z M 15.97997 19.708008 " stroke="#ffffff" stroke-width="0.055" stroke-opacity="1" stroke-miterlimit="4"/></svg>