<svg xmlns="http://www.w3.org/2000/svg" xmlns:xlink="http://www.w3.org/1999/xlink" width="20" height="20" viewBox="0 0 20 20">
  <defs>
    <clipPath id="clip-path">
      <rect id="Rectangle_59" data-name="Rectangle 59" width="20" height="20" transform="translate(-0.386)" fill="#e56b6f"/>
    </clipPath>
  </defs>
  <g id="Mask_Group_35" data-name="Mask Group 35" transform="translate(0.386)" clip-path="url(#clip-path)">
    <g id="physics" transform="translate(0.818)">
      <path id="Path_1814" data-name="Path 1814" d="M11.609,5.552c.474.3.928.62,1.362.947a15.561,15.561,0,0,0-.747-2.822A15.219,15.219,0,0,0,9.7,4.463c.64.322,1.279.689,1.909,1.089Zm0,0" transform="translate(-0.015)" fill="#e56b6f"/>
      <path id="Path_1815" data-name="Path 1815" d="M11.921,2.939c-.02-.04-.038-.08-.054-.122C11.023,1.025,9.895,0,8.762,0S6.5,1.025,5.657,2.817a.892.892,0,0,0-.054.122A16.981,16.981,0,0,1,8.762,4.009a16.986,16.986,0,0,1,3.159-1.069Zm0,0" transform="translate(-0.015)" fill="#e56b6f"/>
      <path id="Path_1816" data-name="Path 1816" d="M13.137,3.516a1.276,1.276,0,0,0-.132.019,17,17,0,0,1,.859,3.672A18.052,18.052,0,0,1,16.057,9.37c.151-.205.293-.415.425-.625,1.055-1.675,1.309-3.184.7-4.131s-2.085-1.352-4.048-1.1Zm0,0" transform="translate(-0.015)" fill="#e56b6f"/>
      <path id="Path_1817" data-name="Path 1817" d="M7.825,4.463A15.081,15.081,0,0,0,5.3,3.677,15.546,15.546,0,0,0,4.553,6.5c.434-.327.894-.645,1.362-.947.63-.4,1.27-.767,1.909-1.089Zm0,0" transform="translate(-0.015)" fill="#e56b6f"/>
      <path id="Path_1818" data-name="Path 1818" d="M15.569,10a16.729,16.729,0,0,0-1.587-1.66c.039.542.059,1.1.059,1.66s-.02,1.113-.059,1.66A16.75,16.75,0,0,0,15.569,10Zm0,0" transform="translate(-0.015)" fill="#e56b6f"/>
      <path id="Path_1819" data-name="Path 1819" d="M9.817,10A1.055,1.055,0,1,1,8.762,8.945,1.055,1.055,0,0,1,9.817,10Zm0,0" transform="translate(-0.015)" fill="#e56b6f"/>
      <path id="Path_1820" data-name="Path 1820" d="M8.762,4.868A21.807,21.807,0,0,0,4.4,7.612a21.679,21.679,0,0,0,0,4.775,22.709,22.709,0,0,0,1.943,1.4,21.3,21.3,0,0,0,2.422,1.343,20.873,20.873,0,0,0,2.422-1.343,20.818,20.818,0,0,0,1.943-1.4A21.157,21.157,0,0,0,13.259,10a21.16,21.16,0,0,0-.132-2.388,22.793,22.793,0,0,0-1.943-1.4A20.9,20.9,0,0,0,8.762,4.868Zm0,6.968A1.836,1.836,0,1,1,10.6,10,1.836,1.836,0,0,1,8.762,11.836Zm0,0" transform="translate(-0.015)" fill="#e56b6f"/>
      <path id="Path_1821" data-name="Path 1821" d="M9.7,15.537a15.084,15.084,0,0,0,2.525.786,15.57,15.57,0,0,0,.747-2.822c-.434.327-.893.644-1.362.947-.63.4-1.27.767-1.909,1.089Zm0,0" transform="translate(-0.015)" fill="#e56b6f"/>
      <path id="Path_1822" data-name="Path 1822" d="M5.6,17.06a1.31,1.31,0,0,1,.054.122C6.5,18.975,7.629,20,8.762,20s2.261-1.025,3.106-2.818a.914.914,0,0,0,.054-.122,16.971,16.971,0,0,1-3.159-1.069A16.966,16.966,0,0,1,5.6,17.06Zm0,0" transform="translate(-0.015)" fill="#e56b6f"/>
      <path id="Path_1823" data-name="Path 1823" d="M16.057,10.63a18.406,18.406,0,0,1-2.192,2.163,17.363,17.363,0,0,1-.859,3.672c.044,0,.088.015.132.02,1.963.254,3.437-.142,4.048-1.094s.352-2.456-.7-4.131c-.132-.215-.274-.42-.425-.63Zm0,0" transform="translate(-0.015)" fill="#e56b6f"/>
      <path id="Path_1824" data-name="Path 1824" d="M1.467,9.37A18.417,18.417,0,0,1,3.66,7.207a17.368,17.368,0,0,1,.859-3.672c-.044,0-.088-.014-.132-.019a8.9,8.9,0,0,0-1.109-.073A3.331,3.331,0,0,0,.339,4.614c-.61.952-.352,2.456.7,4.131.132.21.273.415.425.625Zm0,0" transform="translate(-0.015)" fill="#e56b6f"/>
      <path id="Path_1825" data-name="Path 1825" d="M1.467,10.63c-.151.205-.293.415-.425.625-1.055,1.675-1.309,3.184-.7,4.131s2.085,1.352,4.048,1.094a1.284,1.284,0,0,0,.132-.019,17.012,17.012,0,0,1-.859-3.672A17.02,17.02,0,0,1,1.467,10.63Zm0,0" transform="translate(-0.015)" fill="#e56b6f"/>
      <path id="Path_1826" data-name="Path 1826" d="M5.915,14.448c-.474-.3-.928-.62-1.362-.947A15.554,15.554,0,0,0,5.3,16.323a15.218,15.218,0,0,0,2.524-.786C7.185,15.215,6.545,14.849,5.915,14.448Zm0,0" transform="translate(-0.015)" fill="#e56b6f"/>
      <path id="Path_1827" data-name="Path 1827" d="M1.956,10a16.706,16.706,0,0,0,1.587,1.66c-.039-.542-.059-1.1-.059-1.66s.019-1.113.059-1.66A16.685,16.685,0,0,0,1.956,10Zm0,0" transform="translate(-0.015)" fill="#e56b6f"/>
    </g>
  </g>
</svg>
