<svg id="Selenium_logo" xmlns="http://www.w3.org/2000/svg" width="20" height="20.915" viewBox="0 0 20 20.915">
  <path id="Path_1856" data-name="Path 1856" d="M20.468,21.508A1.532,1.532,0,0,0,18.9,22.867a.049.049,0,0,0,.049.062h3.045a.049.049,0,0,0,.049-.055A1.482,1.482,0,0,0,20.468,21.508Z" transform="translate(-7.273 -8.276)" fill="#e56b6f"/>
  <path id="Path_1857" data-name="Path 1857" d="M19.721,3.02l-6.459,7.252a.2.2,0,0,1-.289,0l-3.3-3.4a.2.2,0,0,1,0-.246l1.089-1.4a.2.2,0,0,1,.32,0L12.93,7.271a.2.2,0,0,0,.3,0L18.374.221A.141.141,0,0,0,18.263,0H.154A.154.154,0,0,0,0,.154V20.761a.154.154,0,0,0,.154.154H19.838a.154.154,0,0,0,.154-.154V3.113a.143.143,0,1,0-.271-.092ZM5.573,18.62a4.97,4.97,0,0,1-3.531-1.23.191.191,0,0,1,0-.252l.769-1.076a.191.191,0,0,1,.265-.068A3.783,3.783,0,0,0,5.659,17c1.009,0,1.5-.468,1.5-.96,0-1.526-4.97-.48-4.97-3.728,0-1.433,1.23-2.627,3.273-2.627a4.847,4.847,0,0,1,3.229,1.083.191.191,0,0,1,0,.265l-.757,1.052a.191.191,0,0,1-.277.031A3.74,3.74,0,0,0,5.3,11.306c-.787,0-1.23.351-1.23.867,0,1.372,4.958.455,4.958,3.691,0,1.562-1.126,2.756-3.457,2.756Zm10.839-3a.166.166,0,0,1-.172.172H11.688a.055.055,0,0,0-.049.062,1.729,1.729,0,0,0,1.845,1.427,2.842,2.842,0,0,0,1.575-.517.166.166,0,0,1,.246.037l.554.806a.172.172,0,0,1-.037.228,4.1,4.1,0,0,1-2.522.787,3.248,3.248,0,0,1-3.426-3.371A3.266,3.266,0,0,1,13.195,11.9a3.213,3.213,0,0,1,3.211,3.531Z" transform="translate(0)" fill="#e56b6f"/>
</svg>
