<svg xmlns="http://www.w3.org/2000/svg" width="338.38" height="328.742" viewBox="0 0 338.38 328.742">
  <g id="Group_1" data-name="Group 1" transform="translate(-1210.163 -174.606)">
    <path id="Path_1" data-name="Path 1" d="M1397.029,268.938" fill="none" stroke="#707070" stroke-width="1"/>
    <path id="Path_21" data-name="Path 21" d="M1461.432,212.171a45.014,45.014,0,0,0-7.944-9.478c-4.462-3.767-13.939-7.362-13.939-7.362s-24.246-8.2-39.283-11.973-30.348-5.4-41.389-4.6-23.642,4.691-23.642,4.691L1295.768,197.8s-10.586,4.141-18.006,9.574-23.477,22.868-23.477,22.868-6.444,9.027-12.716,16.449-12.374,13.24-12.374,13.24a69,69,0,0,0-12.611,24.889c-4.244,15.32-4.364,36.392-4.364,36.392a97.168,97.168,0,0,0,.942,16.131,81.738,81.738,0,0,0,3.99,14.807s1.564,6.374,2.644,13.338,1.677,14.517,1.677,14.517-.5,4.62,4.335,14.754,16.77,24.21,16.77,24.21Z" fill="#c7c5c5"/>
    <path id="Path_22" data-name="Path 22" d="M1213.771,314.7s-3.609,3.991-3.609,18.151,3.609,38.49,3.609,38.49.915,7.994,2.393,17.845c.805,5.368,1.521,11.588,3.195,16.993a67.192,67.192,0,0,0,12.4,23.282l29.836,40s4.6,7.719,10.066,11.932,22.107,11.921,22.107,11.921,35.54,9.646,41.465,9.985,14.855-1.3,14.855-1.3l188.825-126.824s8.835-28.789,9.549-36.064-3.87-24.663-3.87-24.663l-9.032-47.372s-.737-7.953-6.973-16.78-17.971-18.527-17.971-18.527-1.875-6.352-13.365-15.129-32.594-19.977-32.594-19.977-38.524-20.431-55.112-21.844-34.712,4.564-34.712,4.564Z" fill="#e9e7e7"/>
    <path id="Path_20" data-name="Path 20" d="M1284.961,469.238a62.91,62.91,0,0,0,25.852,22.188,85.345,85.345,0,0,0,16.677,6.19,191.117,191.117,0,0,0,28.173,4.854c4.2.463,20.148,0,20.148,0h21.034s12.7.855,18.883,0,12.171-4.628,12.171-4.628,11.143-5.113,21.24-9.41,19.123-7.117,19.123-7.117,11.886-4.921,18.5-8.844,12.916-11.3,12.916-11.3l23.38-37.228s4.2-7.2,5.1-8.293,1.75-.583,1.75-.583c.7,0-.3,2.547.831,2.547s.758.752,2.624-2.547,3.5-10.5,4.475-16.526,1.649-23.531,1.649-23.531,5.064-28.928,4.646-36.186a104.588,104.588,0,0,0-4.08-22.091,181.683,181.683,0,0,0-6.686-17.267,111.824,111.824,0,0,0-5.927-17.176c-2.156-4.647-2.942-7.2-4.407-9.832-.716-1.284-2.361-2.911-2.836-4.445-1.2-3.865,3.462-.67,3.829-1.4a4.92,4.92,0,0,0-.994-3.84c-1.462-2.06-8.436-8.889-8.436-8.889s-4.236-4.847-8.3-8.683a90.312,90.312,0,0,0-7.968-6.662s-6.691-7.629-11.574-12.2-7.96-6.076-7.96-6.076a116.925,116.925,0,0,0-12.217-6.585c-4.789-2.005-6.937-1.436-6.937-1.436Z" transform="translate(-1)" fill="#a09c9e"/>
    <path id="Path_16" data-name="Path 16" d="M1294.382,227.153c-4.284,1.48-27.146,18.842-44.989,42.2-5.907,8.736-4.186,5.708-7.3,14.568-4.959,14.1-9.841,36.06-9.841,36.06s-11.164,18.9-9.22,40.112,17,44.736,17,44.736.57,2,1.96,8.142c.488,2.166-.477,6.2,1.387,9.628,2.522,4.643,6.741,18.1,16.424,27.44,6.777,4.305,9.236,3.644,11.493,5.475s-.053,1.684,2.655,4.671a42.76,42.76,0,0,0,6.933,5.764,67.648,67.648,0,0,0,12.58,10.29,137.035,137.035,0,0,0,17.948,9.084s9.658,9.373,32.24,11.944,29.124-4.666,29.124-4.666,3.749-1.992,4.215-1.53-2.346,3.372-2.346,3.372-2.017,2.871-1.073,3.987,4.85.478,4.85.478,4.759-.031,17.765-7.837,34.258-23.386,34.258-23.386l24.679-9.482a6.444,6.444,0,0,1,3.7-1.642,20.471,20.471,0,0,1,5.775.585,14.12,14.12,0,0,0,5.327,0,12.945,12.945,0,0,0,4.609-2.376s5.738-7.667,11.051-11.409,12.692-8.412,12.692-8.412l16.2-18.477s4.483-1.516,4.825-4.439.731-6.365.731-6.365a18.822,18.822,0,0,1,1.98-5.443c1.828-3.578,5.334-8.756,5.474-11.6.252-5.118-2.6-15.818-2.8-19.735a20.556,20.556,0,0,1,1.177-7.491,59.4,59.4,0,0,0,2.162-5.845,40.972,40.972,0,0,0,.889-4.3c.482-1.84-5.14-3.319-5.14-3.319a33.612,33.612,0,0,0,3.018-12.809,53.531,53.531,0,0,0-1.272-12.654c-1.146-5.064-2.713-7.645-5.12-11.317-2.569-3.922-5.922-8.39-5.922-8.39s-1.082-2.417-.593-3.619,2.55-1.19,2.55-1.19,5.316-1.445,3.011-7.171c-.959-2.382-3.246-4.874-5.768-7.938-3.087-3.752-6.462-7.8-6.462-7.8s1.131-6.122.352-8.03-6.385-4.409-6.385-4.409-5.687-14.232-11.059-20.567-21.079-17.192-21.079-17.192a20.529,20.529,0,0,1-3.868-5.007c-1.544-2.835-2.658-6.826-4.82-7.77-4.1-1.792-17.581-5.553-17.581-5.553a1.839,1.839,0,0,1,0-2.449c.635-.864,3.393-2.15.972-3.2-4.972-2.158-22.22-3.324-22.22-3.324a49.8,49.8,0,0,0-7.416-.455c-4.69,0-11.562.8-11.562.8s-2.317-1.667-2.09-4.011,3.668-4.663,3-5.363-3.66-.561-7.9.251a48.265,48.265,0,0,0-9.07,3l-16.652-.935-21.5,7.061a34.566,34.566,0,0,0-9.588,1.021c-5.491,1.32-14.482,7.612-14.482,7.612s-4.179,3.174-9.752,7.066c-2.129,1.487-3.519,3.385-5.635,5.5-2.847,2.849-5.942,5.76-5.942,5.76A70.376,70.376,0,0,0,1294.382,227.153Z" fill="#767273" stroke="#767273" stroke-width="1"/>
    <path id="Path_2" data-name="Path 2" d="M1381.957,260.409c3.14.075,6.079.116,8.676,1.408a11.814,11.814,0,0,1,3.767,3.522c.957,1.442,1.676,2.355,2.6,3.695,0,0,1.413,2.2,2.669,3.9s2.354,2.9,2.354,2.9,2.125,2.236,3.03,1.876.662-1.883.422-3.555a17.741,17.741,0,0,1-.286-2.974c0-.034.07-1.1.109-1.514a1.5,1.5,0,0,1,1.134-1.049,5.946,5.946,0,0,1,2.389.529,11.47,11.47,0,0,1,1.9,1.651,61.957,61.957,0,0,0,4.818,6.913c2.505,3.007,2.411,3.025,5.2,5.113a16.946,16.946,0,0,0,5.964,3.236,11.711,11.711,0,0,0,2.371.75c.332.058.926.257,1.246-.152a.988.988,0,0,0,.123-.946c-.025-.218-.3-.607-1.084-1.665a14.054,14.054,0,0,1-2.158-3.258,11.462,11.462,0,0,1-1.456-4.3,3.632,3.632,0,0,1,.509-2.914,1.923,1.923,0,0,1,2.051-.783,5.983,5.983,0,0,1,1.938.7,8.632,8.632,0,0,1,2.065,1.874,41.344,41.344,0,0,1,4.366,6.564,47.081,47.081,0,0,1,5.238,12.433c1.858,6.61,2.195,9.194,2.195,14.009s-4.74,6.225-4.74,6.225a6.108,6.108,0,0,1-2.351,0,52.666,52.666,0,0,1-6.371-2.386l-9.022-4.972-7.743-4.565a28.353,28.353,0,0,0-7.452-3.632A44.4,44.4,0,0,0,1395.463,297c-2.43-.134-8.244-.13-8.244-.13a44.09,44.09,0,0,0-9.649.9c-4.944,1.068-6.783,1.509-10.128,3.373a18,18,0,0,0-5.348,4.672s-2.815,3.865-4.231,3.591-.842-5.36-1.434-7.624c-.255-.974-1.154-2.419-4.207-3.422s-8-.59-8-.59l-14.131,1.077s-2.847.006-3.666-1.56.8-4.3.8-4.3a60,60,0,0,1,8.345-9.47,113.634,113.634,0,0,1,10.886-8.772C1353.838,268.957,1370.978,260.148,1381.957,260.409Z" fill="#fff" stroke="#767273" stroke-width="1"/>
    <path id="Path_3" data-name="Path 3" d="M1399.1,321.943c-2.358.245-3.617.046-3.818-.2s-.011-1.332.885-2a15.488,15.488,0,0,1,5.028-2.108,20.588,20.588,0,0,1,5.845-.62c.611.128,3.221.122,4.865,1.383s5,5.622,5.661,6.46a24.559,24.559,0,0,0,7.248,5.967,27.067,27.067,0,0,0,8.112,2.329s1.244.119,1.244.693-.417,1.029-1.65,1.623-6.115.558-8.9-.561a48.213,48.213,0,0,1-5.449-2.668,31.107,31.107,0,0,1-4.312-4.152c-2.054-2.428-2.971-4.958-5.216-6.649S1401.458,321.7,1399.1,321.943Z" fill="#fff" stroke="#fff" stroke-width="1"/>
    <path id="Path_4" data-name="Path 4" d="M1347.468,333.08c2.933.178,4.874,1.546,7.2.713s3.189-4.047,3.189-4.047.557-6.918,1.877-10.283,2.983-3.145,3.4-3.176a4.462,4.462,0,0,1,1.923.859,6.756,6.756,0,0,1,1.443,1.914c.249.827,3.84,6.59,3.84,6.59a21.141,21.141,0,0,0,3.136,3.756,11.325,11.325,0,0,0,4.116,2.895c2.066.918,2.5.016,4.046,1.169s.824,2.466,2.019,3.434a3.493,3.493,0,0,0,3.418.409,26.452,26.452,0,0,1,3.746-1.418,33.581,33.581,0,0,1,9.705-1.811,32.669,32.669,0,0,1,11.054,1.271l.012,0c2.449.628,4.764,1.907,8.672,4.933s3.505,3.5,6.12,5.275,3.242,2.053,4.341,1.81a1.841,1.841,0,0,0,1.286-1.478s-1.268-2.153-.747-2.547,1.383.09,2.834.972c1.246.759,2.778,2.413,4.412,3.053,2.919,1.142,4.431.543,4.431.543s1.244-1.2-.6-3.188-6.781-4.759-6.781-4.759-1.168-1.021.947-.825a29.705,29.705,0,0,1,7.512,1.608,16.27,16.27,0,0,1,5.086,2.6,4.463,4.463,0,0,1,2,2.884c.276,1.867-.251,2.194-1.23,4.53s-.951,1.931-2.907,5.031-2.98,3.379-4.918,7.368-1.865,5.617-2.322,9.3-.289,15.612-.289,15.612l.289,13.549A13.2,13.2,0,0,1,1438,407.6a40.427,40.427,0,0,1-4.459,4.048c-1.917,1.621-3.787,3.17-4.4,3.742-2.339,2.183-4.052,5.294-5.4,5.4-1.645.128-3.862-.742-5.78-.886a14.747,14.747,0,0,0-3.7,0c-2.913.417-4.808,1.224-5.261,3s.808,4.429.808,4.429,1.169,2.747-.808,4.3a14.047,14.047,0,0,1-11.3,1.256c-3.8-1.171-14.538-5.568-17.118-7.611s-2.664-3.722-2.735-5.92a17.423,17.423,0,0,0-.583-3.932,5.95,5.95,0,0,0-3.735-3.369c-2.917-.967-7.934-.5-7.934-.5s-3.754.211-7.953,0-5.077-.5-8.841-.846c-2.859-.262-6.5-.351-7.3-.757-1.673-.851-.774-2.98-.774-2.98a6.968,6.968,0,0,1,5.854-3.634c4.449-.414,5.009.489,11.942.7s7.9.214,15.868,0,9.434-.231,15.491-.546,5.826-.254,8.74-.714,3.442-1.6,4.234-1.428.594,1.18.735,3.448,0,5.615,0,5.615v1.137h.852s1.335-.223,1.873-2.9.018-3.754.278-7.821.973-4.133.76-7.6a61.712,61.712,0,0,0-1.038-7.44,17.483,17.483,0,0,0-1.135-3.8c-.71-1.418-.323-1.237-2.847-2.567s-4.923-1.133-7.249-2.756a16.2,16.2,0,0,1-5.523-5.434,12.44,12.44,0,0,1-1.834-4.2,10.5,10.5,0,0,0-1.334-3.228c-1.724-2.729-3.356-3.408-3.728-3.491s-1.1,0-1.1,1.166a12.067,12.067,0,0,0,1.1,3.48s.768,2.3.518,2.89-.094,1.647-2.241,1.742-2.523-.246-6.189-1.4-8.476-3.228-8.476-3.228-1.459-1.152-5.6-.511-6.637,2.406-10.965,3.074-6.348-.4-6.348-.4-2.277-1.271-2.64-3.317,1.187-4.867,1.187-4.867l1.029-1.89-1.416-.751s-2.058-.086-2.754.751-.83,1.835-1.371,3.265a36.549,36.549,0,0,1-2.629,5.767c-1.589,2.884-2.557,9.324-3.487,10.811a8.143,8.143,0,0,1-2.97,2.457s-3.113,1.544-5.276,2.828-3.2,1.974-3.888,4.124-.177,3.974,0,6.265a43.06,43.06,0,0,1,0,5.085l-.3,5.941a39.062,39.062,0,0,0,0,5.066c.2,1.861.072,2.054.811,2.376s1.134-.26,2.144-1.087.993-1.474,1.9-2.22,1.28-.8,1.717-.761a3.533,3.533,0,0,1,2.493,1.691,6.367,6.367,0,0,1,.4,3.392,29.867,29.867,0,0,1-.874,4.586c-.724,2.775-2.024,6.515-2.024,6.515a12.438,12.438,0,0,0-.7,3.465,3.607,3.607,0,0,0,.7,2.637c.455.585,4.178,3.512,10.2,5.241s5.351,1.5,11.371,1.6,7.733-1.077,11.305-1.077,3.542,2.183,3.542,2.183a4.13,4.13,0,0,1-.561,2.833,20.823,20.823,0,0,1-2.981,3.714,18.775,18.775,0,0,0-4.165,4.485c-1.528,2.508-1.273,3.379-2.229,5.189s-1.659,1.756-2.079,1.719-2.155.363-5.553-1.719a51.433,51.433,0,0,1-7.556-6.277s-8.039-6.293-13.749-11.61a96.868,96.868,0,0,1-8.007-8.115,21.337,21.337,0,0,1-2.507-4.608,18.244,18.244,0,0,1-1.2-6.173c-.437-7.6.876-21.152.876-21.152v-17.8a29.059,29.059,0,0,0-.418-5.038,7.314,7.314,0,0,0-1.323-3.051s-1.254-.633-3,1.046a32.046,32.046,0,0,0-3.985,5.671c-.327.5-3.12,3.308-3.747,0s-.64-5,.362-11.86.879-8.978,3.385-14.644,3.879-6.946,6.435-8.023,2.9-.454,5.091.4,2.526,1.679,4.222,2.525,2.354,1.175,3.061.8,1.222-1.844,1.222-1.844a7.385,7.385,0,0,0,.37-1.881c.384-.906.232-1.7,1.4-2.406a8.967,8.967,0,0,1,4.109-.66c2.2-.319,1.345.077,3.881-.808,4.366-1.523,6.9-3.936,8.722-4.447A13.413,13.413,0,0,1,1347.468,333.08Z" fill="#fff" stroke="#767273" stroke-width="1"/>
    <path id="Path_5" data-name="Path 5" d="M1444.466,326.431s1.275,1.395-6.479,2.249-8.386-1.566-8.386-1.566,0-.484,1.374-.683c.791-.114,3.227-.167,6.081-.6,1.578-.239,3.607-.884,4.646-.932C1445.418,324.731,1444.466,326.431,1444.466,326.431Z" fill="#fff" stroke="#fff" stroke-width="1"/>
    <path id="Path_6" data-name="Path 6" d="M1323.815,320.967s-2.893,1.02-3.42,2.89c-.033.864-.164,2.787,1.4,3.573s7.08-1.612,7.08-1.612a45.084,45.084,0,0,1,8.272-2.447c5-1.015,6.3.723,8.409,0a2.55,2.55,0,0,0,2-2.4,31.756,31.756,0,0,1-6.4-.9c-2.1-.558-3.758-1.868-6.494-1.868-2.042,0-3.848.789-5.788,1.3C1326.043,320.236,1323.815,320.967,1323.815,320.967Z" fill="#fff" stroke="#fff" stroke-width="1"/>
    <path id="Path_7" data-name="Path 7" d="M1324.429,345.554s-1.093,1.368.173,2.266,4.73,1.325,4.73,1.325a38.4,38.4,0,0,0,7.416-.967,41.324,41.324,0,0,0,7.182-2.625s2.488-1.539,2.966-2.738-1.053-2.056-1.053-2.056a7.2,7.2,0,0,0-3.345-1.282c-1.537,0-1.666,1.406-4.958,2.674a29.275,29.275,0,0,1-5.339,1.7c-1.381.313-4.264.516-5.715.794A4.025,4.025,0,0,0,1324.429,345.554Z" fill="#767273" stroke="rgba(181,101,118,0)" stroke-width="1"/>
    <path id="Path_8" data-name="Path 8" d="M1387.795,341.514c-.612.206-1.358.618-1.414,2.391a2.305,2.305,0,0,0,1.414,2.416c.461.319,5.677.562,10.05.445a24.235,24.235,0,0,0,8.044-1.4,15.2,15.2,0,0,0,5.1-3.222c1.632-1.584,1.165-2.166.351-2.543s-.615.756-3.257,1.255a58.882,58.882,0,0,1-6.834.656S1388.407,341.309,1387.795,341.514Z" fill="#767273" stroke="#767273" stroke-width="1"/>
    <path id="Path_10" data-name="Path 10" d="M1373.463,492.113" fill="none" stroke="#707070" stroke-width="1"/>
    <path id="Path_13" data-name="Path 13" d="M1377.852,381.538a57.093,57.093,0,0,0-11.2,3.81c-4.38,2.273-3.338,3.185-6.319,5.281s-3.945,1.616-5.606,3.1-1.038,2.846-1.038,2.846c-.482.432,4.436.662,11.653,1.3,7.2.642,17.043,1.668,24.7,1.272,9.155-.473,12.491-4.159,12.491-4.159v-7.478s-4.355-5.755-8.3-6.909S1377.852,381.538,1377.852,381.538Z" fill="#fff" stroke="#767273" stroke-width="1"/>
    <path id="Path_14" data-name="Path 14" d="M1334.755,382.473c1.057,1.5,4.3,2.376,0,8.582s-9.763,5.973-9.763,5.973-1.443-.577-1.261-2.792.291-3.773,1.99-6.069,2.548-1.693,4.807-3.117S1333.7,380.972,1334.755,382.473Z" transform="translate(0.275 0.225)" fill="#fff" stroke="#767273" stroke-width="1"/>
    <path id="Path_15" data-name="Path 15" d="M1411.514,384.241c-.214,1.151,1.221,4.7,1.365,10.985s-1.547,13.715-1.365,14.337.451.729,1.365,1a7.263,7.263,0,0,0,2.53,0,1.79,1.79,0,0,0,1.518-1.809c.077-1.649,1.083-7.693.379-14.2s-1.685-9.361-3.129-11.314S1411.728,383.089,1411.514,384.241Z" fill="#767273" stroke="#767273" stroke-width="1"/>
    <path id="Path_17" data-name="Path 17" d="M1280.281,266.122a10.117,10.117,0,0,1-1.084,3.348,25.9,25.9,0,0,1-2.663,3.85s.379,7.154-1.6,10.96-10.485,14.879-10.485,14.879-5.773,10.8-8,29.2-.919,44.376-.919,44.376-.716,2.005-1.964,1.607-3.03-3.2-3.03-3.2L1245.1,340.3s-3.269-17.912.715-31.8,15.221-23.743,15.221-23.743,9.09-11.057,13.9-15.716S1280.281,266.122,1280.281,266.122Z" fill="#fff" stroke="#fff" stroke-width="1"/>
    <path id="Path_18" data-name="Path 18" d="M1299.356,246.291c.426,1.28-3.8,7.045-5.687,8.857s-5.844,2.481-5.844,2.481a9.362,9.362,0,0,1,0-3.751c.457-1.57,4.14-3.852,4.14-3.852S1298.93,245.011,1299.356,246.291Z" fill="#fff" stroke="#fff" stroke-width="1"/>
    <path id="Path_19" data-name="Path 19" d="M1445.134,237.317c.237,1.1.328.787,3.505,2.948a112.774,112.774,0,0,1,9.55,6.824,62.466,62.466,0,0,1,10.968,12.26c4.889,7.77,5.187,7.778,5.187,7.778s14.967,17.444,21.783,35.134,5.48,35.627,5.48,35.627,1.023,2.154,1.855,2.154,1.473-2.154,1.473-2.154,2.057-22.031-1.473-37.094c-.9-3.856-3.517-7.541-5.041-10.746a57.542,57.542,0,0,0-7.6-12.41s.682-4.789,0-6.964-8.453-8.671-8.453-8.671a100.773,100.773,0,0,0-4-9.831c-2.807-4.3-8.375-9.418-12.805-12.307-5.045-3.289-18.011-3.841-18.011-3.841S1444.9,236.216,1445.134,237.317Z" fill="#fff" stroke="#fff" stroke-width="1"/>
  </g>
</svg>
