<svg xmlns="http://www.w3.org/2000/svg" xmlns:xlink="http://www.w3.org/1999/xlink" width="54" height="54" viewBox="0 0 54 54">
  <defs>
    <clipPath id="clip-path">
      <rect id="Rectangle_34" data-name="Rectangle 34" width="54" height="54" transform="translate(822.796 4960.796)" fill="#e56b6f" stroke="#707070" stroke-width="1"/>
    </clipPath>
  </defs>
  <g id="Mask_Group_19" data-name="Mask Group 19" transform="translate(-822.796 -4960.796)" clip-path="url(#clip-path)">
    <path id="phone-call" d="M31.708,36.31A27.092,27.092,0,0,1,17.3,21.867l7.592-7.605L10.912.272,3.832,7.351A13.174,13.174,0,0,0,0,16.747C0,32.931,20.659,53.591,36.843,53.591a13.15,13.15,0,0,0,9.394-3.832l7.081-7.081L39.329,28.689ZM43.078,46.6a8.709,8.709,0,0,1-6.234,2.523c-13.918,0-32.378-18.46-32.378-32.378A8.724,8.724,0,0,1,6.989,10.51l3.923-3.923,7.675,7.675-6.554,6.554.547,1.371A32.092,32.092,0,0,0,31.442,41.024l1.353.516L39.329,35,47,42.678ZM31.261,4.466V0A22.354,22.354,0,0,1,53.591,22.329H49.125A17.884,17.884,0,0,0,31.261,4.466Zm0,8.932V8.932a13.411,13.411,0,0,1,13.4,13.4H40.193A8.932,8.932,0,0,0,31.261,13.4Z" transform="translate(823.001 4961)" fill="#e56b6f"/>
  </g>
</svg>
