<svg xmlns="http://www.w3.org/2000/svg" xmlns:xlink="http://www.w3.org/1999/xlink" width="1080" zoomAndPan="magnify" viewBox="0 0 810 809.999993" height="1080" preserveAspectRatio="xMidYMid meet" version="1.0"><defs><g/></defs><path fill="#e56b6f" d="M 405 0 C 181.324219 0 0 181.324219 0 405 C 0 628.675781 181.324219 810 405 810 C 628.675781 810 810 628.675781 810 405 C 810 181.324219 628.675781 0 405 0 " fill-opacity="1" fill-rule="nonzero"/><g fill="#ffffff" fill-opacity="1"><g transform="translate(77.976561, 573.114762)"><g><path d="M 180.21875 5.875 C 147.738281 5.875 120.050781 -0.0390625 97.15625 -11.875 C 74.257812 -23.71875 56.84375 -42.066406 44.90625 -66.921875 C 32.96875 -91.773438 27 -123.570312 27 -162.3125 C 27 -202.425781 33.796875 -235.15625 47.390625 -260.5 C 60.992188 -285.84375 79.878906 -304.476562 104.046875 -316.40625 C 128.210938 -328.34375 156.242188 -334.3125 188.140625 -334.3125 C 210.835938 -334.3125 230.453125 -332.109375 246.984375 -327.703125 C 263.523438 -323.304688 277.960938 -318.078125 290.296875 -312.015625 L 263.875 -242.734375 C 249.78125 -248.410156 236.664062 -253.054688 224.53125 -256.671875 C 212.40625 -260.296875 200.273438 -262.109375 188.140625 -262.109375 C 172.484375 -262.109375 159.46875 -258.4375 149.09375 -251.09375 C 138.726562 -243.757812 131 -232.753906 125.90625 -218.078125 C 120.820312 -203.398438 118.28125 -185.007812 118.28125 -162.90625 C 118.28125 -141.1875 121.019531 -123.179688 126.5 -108.890625 C 131.976562 -94.609375 139.90625 -83.992188 150.28125 -77.046875 C 160.65625 -70.097656 173.273438 -66.625 188.140625 -66.625 C 206.734375 -66.625 223.269531 -69.117188 237.75 -74.109375 C 252.226562 -79.097656 266.316406 -86.09375 280.015625 -95.09375 L 280.015625 -18.484375 C 266.316406 -9.878906 251.984375 -3.671875 237.015625 0.140625 C 222.046875 3.960938 203.113281 5.875 180.21875 5.875 Z M 180.21875 5.875 "/></g></g><g transform="translate(387.047212, 573.114762)"><g><path d="M 0 -328.15625 L 98.03125 -328.15625 L 159.96875 -143.53125 C 161.925781 -137.65625 163.585938 -131.6875 164.953125 -125.625 C 166.328125 -119.5625 167.503906 -113.300781 168.484375 -106.84375 C 169.460938 -100.382812 170.242188 -93.632812 170.828125 -86.59375 L 172.59375 -86.59375 C 173.757812 -97.15625 175.367188 -107.035156 177.421875 -116.234375 C 179.484375 -125.429688 182.078125 -134.53125 185.203125 -143.53125 L 245.96875 -328.15625 L 341.953125 -328.15625 L 203.109375 41.96875 C 194.703125 64.664062 183.742188 83.597656 170.234375 98.765625 C 156.734375 113.929688 141.226562 125.328125 123.71875 132.953125 C 106.207031 140.585938 86.984375 144.40625 66.046875 144.40625 C 55.867188 144.40625 47.0625 143.867188 39.625 142.796875 C 32.1875 141.722656 25.828125 140.597656 20.546875 139.421875 L 20.546875 68.390625 C 24.648438 69.367188 29.832031 70.25 36.09375 71.03125 C 42.363281 71.8125 48.921875 72.203125 55.765625 72.203125 C 68.285156 72.203125 79.046875 69.5625 88.046875 64.28125 C 97.054688 59 104.59375 51.90625 110.65625 43 C 116.71875 34.09375 121.507812 24.359375 125.03125 13.796875 L 130.328125 -2.34375 Z M 0 -328.15625 "/></g></g></g></svg>