<svg xmlns="http://www.w3.org/2000/svg" xmlns:xlink="http://www.w3.org/1999/xlink" width="1080" zoomAndPan="magnify" viewBox="0 0 810 809.999993" height="1080" preserveAspectRatio="xMidYMid meet" version="1.0"><defs><clipPath id="id1"><path d="M 5 288 L 810 288 L 810 745.5 L 5 745.5 Z M 5 288 " clip-rule="nonzero"/></clipPath></defs><path fill="#e56b6f" d="M 0 263.007812 L 132.554688 263.007812 L 132.554688 395.625 L 0 395.625 Z M 0 263.007812 " fill-opacity="1" fill-rule="nonzero"/><path fill="#e56b6f" d="M 172.570312 263.007812 L 305.128906 263.007812 L 305.128906 395.625 L 172.570312 395.625 Z M 172.570312 263.007812 " fill-opacity="1" fill-rule="nonzero"/><path fill="#e56b6f" d="M 172.570312 81.765625 L 305.128906 81.765625 L 305.128906 214.386719 L 172.570312 214.386719 Z M 172.570312 81.765625 " fill-opacity="1" fill-rule="nonzero"/><path fill="#e56b6f" d="M 345.179688 263.007812 L 477.738281 263.007812 L 477.738281 395.625 L 345.179688 395.625 Z M 345.179688 263.007812 " fill-opacity="1" fill-rule="nonzero"/><path fill="#e56b6f" d="M 345.179688 81.765625 L 477.738281 81.765625 L 477.738281 214.386719 L 345.179688 214.386719 Z M 345.179688 81.765625 " fill-opacity="1" fill-rule="nonzero"/><g clip-path="url(#id1)"><path fill="#e56b6f" d="M 806.234375 400.488281 C 789.183594 387.722656 769.214844 380.957031 748.601562 380.957031 C 737.667969 380.957031 726.773438 382.859375 716.28125 386.628906 C 712.679688 387.925781 709.035156 389.507812 705.144531 391.449219 L 694.292969 396.921875 L 693.847656 384.765625 C 693.683594 380.59375 693.402344 376.863281 693.035156 373.421875 C 689.511719 342.382812 676.714844 314.382812 656.058594 292.421875 L 652.332031 288.453125 L 648.566406 292.382812 C 625.886719 315.882812 614.585938 349.878906 618.394531 383.265625 C 621.632812 411.710938 625.5625 424.59375 641.316406 440.277344 L 646.664062 445.625 L 641.480469 451.136719 C 636.253906 456.6875 635.769531 457.210938 635.242188 457.820312 C 634.59375 458.550781 633.824219 459.402344 624.308594 469.53125 L 622 472.003906 L 5.914062 469.488281 L 7.492188 475.933594 C 23.246094 540.640625 55.972656 599.472656 102.101562 646.027344 L 103.640625 647.570312 L 268.960938 647.570312 L 268.960938 663.167969 L 119.878906 663.167969 L 131.382812 672.40625 C 190.632812 719.976562 260.699219 745.097656 334.085938 745.097656 C 489.117188 745.097656 623.660156 633.265625 661.324219 473.136719 L 663.105469 465.476562 L 670.71875 467.300781 C 672.339844 467.707031 673.960938 468.070312 675.660156 468.394531 L 676.632812 468.597656 C 683.964844 469.976562 691.496094 470.707031 699.03125 470.707031 C 713.042969 470.707031 726.8125 468.316406 740.015625 463.574219 C 767.839844 453.605469 791.855469 433.628906 807.652344 407.253906 L 810.039062 403.242188 Z M 274.144531 585.089844 C 257.902344 585.089844 244.699219 571.921875 244.699219 555.632812 C 244.699219 539.382812 257.863281 526.175781 274.144531 526.175781 C 290.425781 526.175781 303.589844 539.34375 303.589844 555.632812 C 303.589844 571.878906 290.425781 585.089844 274.144531 585.089844 Z M 274.144531 585.089844 " fill-opacity="1" fill-rule="nonzero"/></g></svg>