<svg xmlns="http://www.w3.org/2000/svg" xmlns:xlink="http://www.w3.org/1999/xlink" width="1080" zoomAndPan="magnify" viewBox="0 0 810 809.999993" height="1080" preserveAspectRatio="xMidYMid meet" version="1.0"><defs><clipPath id="id1"><path d="M 21.261719 5 L 788.511719 5 L 788.511719 805 L 21.261719 805 Z M 21.261719 5 " clip-rule="nonzero"/></clipPath></defs><g clip-path="url(#id1)"><path fill="#e56b6f" d="M 671.292969 5.273438 L 138.480469 5.273438 C 136.5625 5.277344 134.648438 5.324219 132.730469 5.421875 C 130.816406 5.519531 128.902344 5.660156 126.996094 5.851562 C 125.085938 6.039062 123.183594 6.277344 121.289062 6.558594 C 119.390625 6.84375 117.503906 7.171875 115.621094 7.546875 C 113.742188 7.921875 111.871094 8.34375 110.011719 8.8125 C 108.148438 9.28125 106.300781 9.792969 104.46875 10.351562 C 102.632812 10.910156 100.8125 11.511719 99.007812 12.160156 C 97.203125 12.804688 95.414062 13.496094 93.640625 14.230469 C 91.871094 14.96875 90.117188 15.746094 88.386719 16.566406 C 86.652344 17.386719 84.9375 18.25 83.25 19.15625 C 81.558594 20.058594 79.890625 21.007812 78.246094 21.992188 C 76.601562 22.980469 74.980469 24.007812 73.386719 25.070312 C 71.792969 26.136719 70.222656 27.242188 68.683594 28.386719 C 67.144531 29.527344 65.632812 30.710938 64.152344 31.925781 C 62.667969 33.144531 61.214844 34.398438 59.796875 35.683594 C 58.375 36.972656 56.984375 38.296875 55.628906 39.652344 C 54.273438 41.007812 52.953125 42.398438 51.664062 43.820312 C 50.375 45.242188 49.125 46.691406 47.90625 48.175781 C 46.691406 49.65625 45.507812 51.167969 44.367188 52.710938 C 43.222656 54.25 42.121094 55.820312 41.054688 57.414062 C 39.988281 59.007812 38.960938 60.628906 37.976562 62.273438 C 36.988281 63.917969 36.042969 65.585938 35.136719 67.277344 C 34.234375 68.96875 33.371094 70.683594 32.550781 72.417969 C 31.730469 74.152344 30.953125 75.902344 30.21875 77.675781 C 29.480469 79.449219 28.792969 81.238281 28.144531 83.042969 C 27.496094 84.847656 26.894531 86.667969 26.335938 88.503906 C 25.777344 90.339844 25.265625 92.1875 24.800781 94.046875 C 24.332031 95.910156 23.910156 97.78125 23.535156 99.660156 C 23.160156 101.542969 22.828125 103.429688 22.546875 105.328125 C 22.265625 107.226562 22.027344 109.128906 21.835938 111.039062 C 21.648438 112.949219 21.503906 114.859375 21.410156 116.777344 C 21.3125 118.691406 21.265625 120.609375 21.261719 122.527344 L 21.261719 719.449219 C 21.261719 720.847656 21.296875 722.242188 21.363281 723.636719 C 21.433594 725.027344 21.535156 726.421875 21.671875 727.808594 C 21.808594 729.199219 21.980469 730.582031 22.183594 731.964844 C 22.390625 733.34375 22.628906 734.71875 22.902344 736.085938 C 23.171875 737.457031 23.476562 738.816406 23.816406 740.171875 C 24.15625 741.523438 24.527344 742.871094 24.933594 744.203125 C 25.339844 745.539062 25.777344 746.863281 26.246094 748.179688 C 26.714844 749.492188 27.21875 750.792969 27.75 752.082031 C 28.285156 753.375 28.851562 754.648438 29.449219 755.910156 C 30.042969 757.171875 30.671875 758.417969 31.328125 759.648438 C 31.988281 760.878906 32.675781 762.09375 33.390625 763.289062 C 34.109375 764.488281 34.855469 765.667969 35.628906 766.828125 C 36.40625 767.988281 37.207031 769.128906 38.039062 770.25 C 38.871094 771.371094 39.726562 772.46875 40.613281 773.546875 C 41.5 774.628906 42.410156 775.683594 43.347656 776.71875 C 44.285156 777.75 45.246094 778.761719 46.230469 779.75 C 47.21875 780.734375 48.226562 781.699219 49.261719 782.636719 C 50.296875 783.574219 51.351562 784.484375 52.429688 785.367188 C 53.507812 786.253906 54.609375 787.113281 55.730469 787.945312 C 56.851562 788.773438 57.988281 789.578125 59.148438 790.355469 C 60.308594 791.128906 61.488281 791.875 62.683594 792.59375 C 63.882812 793.3125 65.09375 794 66.324219 794.65625 C 67.554688 795.3125 68.800781 795.941406 70.0625 796.539062 C 71.324219 797.136719 72.601562 797.699219 73.890625 798.234375 C 75.175781 798.769531 76.480469 799.269531 77.792969 799.742188 C 79.105469 800.210938 80.429688 800.648438 81.765625 801.054688 C 83.101562 801.457031 84.445312 801.832031 85.796875 802.171875 C 87.152344 802.507812 88.511719 802.816406 89.882812 803.085938 C 91.25 803.359375 92.625 803.597656 94.003906 803.800781 C 95.382812 804.007812 96.769531 804.179688 98.15625 804.316406 C 99.546875 804.453125 100.9375 804.554688 102.328125 804.621094 C 103.722656 804.691406 105.117188 804.726562 106.511719 804.726562 L 703.261719 804.726562 C 704.65625 804.726562 706.050781 804.691406 707.445312 804.621094 C 708.839844 804.554688 710.230469 804.453125 711.617188 804.316406 C 713.007812 804.179688 714.390625 804.007812 715.769531 803.800781 C 717.152344 803.597656 718.527344 803.359375 719.894531 803.085938 C 721.261719 802.816406 722.625 802.507812 723.976562 802.171875 C 725.328125 801.832031 726.675781 801.457031 728.007812 801.054688 C 729.34375 800.648438 730.667969 800.210938 731.980469 799.742188 C 733.296875 799.269531 734.597656 798.769531 735.886719 798.234375 C 737.175781 797.699219 738.449219 797.136719 739.710938 796.539062 C 740.972656 795.941406 742.21875 795.3125 743.449219 794.65625 C 744.679688 794 745.894531 793.3125 747.089844 792.59375 C 748.285156 791.875 749.464844 791.128906 750.625 790.355469 C 751.785156 789.578125 752.925781 788.777344 754.046875 787.945312 C 755.167969 787.113281 756.265625 786.253906 757.34375 785.367188 C 758.421875 784.484375 759.480469 783.574219 760.511719 782.636719 C 761.546875 781.699219 762.558594 780.734375 763.542969 779.75 C 764.53125 778.761719 765.492188 777.75 766.429688 776.71875 C 767.367188 775.683594 768.277344 774.628906 769.160156 773.546875 C 770.046875 772.46875 770.90625 771.371094 771.734375 770.25 C 772.566406 769.128906 773.371094 767.988281 774.144531 766.828125 C 774.921875 765.667969 775.667969 764.488281 776.382812 763.289062 C 777.101562 762.09375 777.789062 760.878906 778.445312 759.648438 C 779.105469 758.417969 779.730469 757.171875 780.328125 755.910156 C 780.925781 754.648438 781.488281 753.375 782.023438 752.082031 C 782.558594 750.792969 783.058594 749.492188 783.527344 748.179688 C 784 746.863281 784.4375 745.539062 784.839844 744.203125 C 785.246094 742.871094 785.617188 741.523438 785.957031 740.171875 C 786.296875 738.816406 786.601562 737.457031 786.875 736.085938 C 787.148438 734.71875 787.386719 733.34375 787.589844 731.964844 C 787.792969 730.582031 787.964844 729.199219 788.101562 727.808594 C 788.238281 726.421875 788.339844 725.027344 788.410156 723.636719 C 788.476562 722.242188 788.511719 720.847656 788.511719 719.449219 L 788.511719 122.527344 C 788.511719 120.609375 788.460938 118.691406 788.367188 116.777344 C 788.269531 114.859375 788.125 112.949219 787.9375 111.039062 C 787.746094 109.128906 787.511719 107.226562 787.226562 105.328125 C 786.945312 103.429688 786.617188 101.542969 786.242188 99.660156 C 785.863281 97.78125 785.445312 95.910156 784.976562 94.046875 C 784.507812 92.1875 783.996094 90.339844 783.4375 88.503906 C 782.878906 86.667969 782.277344 84.847656 781.628906 83.042969 C 780.984375 81.238281 780.292969 79.449219 779.558594 77.675781 C 778.824219 75.902344 778.046875 74.152344 777.222656 72.417969 C 776.402344 70.683594 775.539062 68.96875 774.636719 67.277344 C 773.730469 65.585938 772.785156 63.917969 771.800781 62.273438 C 770.8125 60.628906 769.785156 59.007812 768.722656 57.414062 C 767.65625 55.820312 766.550781 54.25 765.40625 52.710938 C 764.265625 51.167969 763.085938 49.65625 761.867188 48.175781 C 760.652344 46.691406 759.398438 45.242188 758.109375 43.820312 C 756.824219 42.398438 755.5 41.007812 754.144531 39.652344 C 752.789062 38.296875 751.398438 36.972656 749.980469 35.683594 C 748.558594 34.398438 747.105469 33.144531 745.625 31.925781 C 744.140625 30.710938 742.632812 29.527344 741.089844 28.386719 C 739.550781 27.242188 737.984375 26.136719 736.390625 25.070312 C 734.792969 24.007812 733.175781 22.980469 731.53125 21.992188 C 729.886719 21.007812 728.21875 20.058594 726.527344 19.15625 C 724.835938 18.25 723.125 17.386719 721.390625 16.566406 C 719.65625 15.746094 717.90625 14.96875 716.132812 14.230469 C 714.363281 13.496094 712.574219 12.804688 710.769531 12.160156 C 708.960938 11.511719 707.140625 10.910156 705.308594 10.351562 C 703.472656 9.792969 701.625 9.28125 699.765625 8.8125 C 697.90625 8.34375 696.035156 7.921875 694.152344 7.546875 C 692.273438 7.171875 690.382812 6.84375 688.488281 6.558594 C 686.589844 6.277344 684.6875 6.039062 682.78125 5.851562 C 680.871094 5.660156 678.960938 5.519531 677.042969 5.421875 C 675.128906 5.324219 673.210938 5.277344 671.292969 5.273438 Z M 85.199219 207.800781 L 85.199219 122.527344 C 85.203125 120.78125 85.289062 119.042969 85.460938 117.304688 C 85.632812 115.570312 85.890625 113.84375 86.230469 112.132812 C 86.574219 110.421875 86.996094 108.730469 87.503906 107.0625 C 88.011719 105.390625 88.601562 103.75 89.269531 102.140625 C 89.9375 100.527344 90.683594 98.953125 91.503906 97.414062 C 92.328125 95.875 93.222656 94.378906 94.195312 92.929688 C 95.164062 91.476562 96.203125 90.078125 97.308594 88.730469 C 98.414062 87.378906 99.585938 86.089844 100.820312 84.855469 C 102.054688 83.621094 103.34375 82.449219 104.691406 81.34375 C 106.042969 80.234375 107.441406 79.195312 108.890625 78.226562 C 110.339844 77.257812 111.835938 76.359375 113.375 75.539062 C 114.914062 74.714844 116.488281 73.96875 118.097656 73.300781 C 119.710938 72.632812 121.351562 72.042969 123.019531 71.535156 C 124.6875 71.027344 126.378906 70.605469 128.089844 70.261719 C 129.800781 69.921875 131.523438 69.664062 133.261719 69.492188 C 134.996094 69.320312 136.738281 69.234375 138.480469 69.230469 L 213.074219 69.230469 L 213.074219 207.800781 Z M 292.082031 576.464844 C 292.589844 576.957031 293.070312 577.472656 293.527344 578.007812 C 293.984375 578.546875 294.410156 579.109375 294.8125 579.6875 C 295.214844 580.269531 295.585938 580.867188 295.925781 581.488281 C 296.269531 582.105469 296.578125 582.738281 296.855469 583.386719 C 297.136719 584.035156 297.378906 584.695312 297.59375 585.367188 C 297.804688 586.042969 297.984375 586.722656 298.128906 587.414062 C 298.277344 588.105469 298.386719 588.800781 298.460938 589.503906 C 298.539062 590.207031 298.578125 590.910156 298.585938 591.617188 C 298.59375 592.320312 298.5625 593.027344 298.5 593.730469 C 298.433594 594.433594 298.335938 595.128906 298.203125 595.824219 C 298.070312 596.515625 297.902344 597.203125 297.703125 597.878906 C 297.5 598.554688 297.265625 599.21875 297 599.871094 C 296.730469 600.527344 296.433594 601.164062 296.101562 601.789062 C 295.773438 602.414062 295.410156 603.019531 295.019531 603.605469 C 294.628906 604.195312 294.210938 604.761719 293.761719 605.308594 C 293.316406 605.851562 292.84375 606.375 292.34375 606.875 C 291.84375 607.375 291.324219 607.847656 290.777344 608.292969 C 290.230469 608.742188 289.664062 609.160156 289.078125 609.550781 C 288.488281 609.941406 287.882812 610.304688 287.257812 610.632812 C 286.636719 610.964844 285.996094 611.265625 285.34375 611.53125 C 284.691406 611.796875 284.027344 612.03125 283.351562 612.234375 C 282.671875 612.433594 281.988281 612.601562 281.296875 612.734375 C 280.601562 612.871094 279.90625 612.96875 279.203125 613.03125 C 278.5 613.09375 277.792969 613.125 277.089844 613.117188 C 276.382812 613.113281 275.679688 613.070312 274.976562 612.996094 C 274.277344 612.917969 273.582031 612.808594 272.890625 612.664062 C 272.199219 612.519531 271.515625 612.339844 270.84375 612.125 C 270.171875 611.914062 269.511719 611.667969 268.863281 611.386719 C 268.214844 611.109375 267.582031 610.800781 266.964844 610.457031 C 266.34375 610.117188 265.746094 609.746094 265.164062 609.34375 C 264.585938 608.941406 264.027344 608.515625 263.488281 608.058594 C 262.949219 607.601562 262.433594 607.117188 261.945312 606.609375 L 176.695312 521.335938 C 176.203125 520.84375 175.734375 520.324219 175.289062 519.785156 C 174.847656 519.246094 174.433594 518.6875 174.046875 518.105469 C 173.65625 517.527344 173.300781 516.925781 172.96875 516.3125 C 172.640625 515.695312 172.34375 515.066406 172.078125 514.421875 C 171.808594 513.777344 171.574219 513.121094 171.371094 512.453125 C 171.167969 511.785156 171 511.105469 170.863281 510.421875 C 170.726562 509.738281 170.625 509.046875 170.558594 508.351562 C 170.488281 507.660156 170.453125 506.960938 170.453125 506.265625 C 170.453125 505.566406 170.488281 504.871094 170.558594 504.175781 C 170.625 503.480469 170.726562 502.789062 170.863281 502.105469 C 171 501.421875 171.167969 500.746094 171.371094 500.078125 C 171.574219 499.410156 171.808594 498.753906 172.078125 498.105469 C 172.34375 497.460938 172.640625 496.832031 172.96875 496.214844 C 173.300781 495.601562 173.65625 495.003906 174.046875 494.421875 C 174.433594 493.839844 174.847656 493.28125 175.289062 492.742188 C 175.734375 492.203125 176.203125 491.683594 176.695312 491.191406 L 261.945312 405.917969 C 262.441406 405.4375 262.960938 404.984375 263.5 404.554688 C 264.039062 404.125 264.601562 403.722656 265.179688 403.347656 C 265.761719 402.972656 266.355469 402.625 266.96875 402.308594 C 267.582031 401.992188 268.210938 401.707031 268.851562 401.449219 C 269.492188 401.195312 270.144531 400.96875 270.808594 400.777344 C 271.472656 400.585938 272.140625 400.425781 272.820312 400.296875 C 273.5 400.171875 274.179688 400.078125 274.867188 400.015625 C 275.554688 399.953125 276.246094 399.925781 276.9375 399.933594 C 277.625 399.941406 278.3125 399.980469 279 400.050781 C 279.6875 400.125 280.367188 400.230469 281.042969 400.371094 C 281.71875 400.507812 282.386719 400.679688 283.046875 400.882812 C 283.707031 401.089844 284.355469 401.324219 284.992188 401.589844 C 285.628906 401.859375 286.25 402.15625 286.859375 402.484375 C 287.464844 402.808594 288.054688 403.167969 288.628906 403.550781 C 289.203125 403.9375 289.753906 404.347656 290.289062 404.785156 C 290.820312 405.226562 291.332031 405.6875 291.820312 406.175781 C 292.308594 406.664062 292.773438 407.175781 293.210938 407.710938 C 293.648438 408.242188 294.058594 408.796875 294.445312 409.367188 C 294.828125 409.941406 295.1875 410.53125 295.511719 411.140625 C 295.839844 411.75 296.136719 412.371094 296.40625 413.007812 C 296.671875 413.644531 296.90625 414.292969 297.109375 414.953125 C 297.316406 415.613281 297.488281 416.28125 297.625 416.957031 C 297.765625 417.632812 297.871094 418.3125 297.945312 419 C 298.015625 419.6875 298.054688 420.375 298.0625 421.066406 C 298.066406 421.757812 298.039062 422.445312 297.980469 423.132812 C 297.917969 423.820312 297.824219 424.503906 297.699219 425.183594 C 297.570312 425.863281 297.410156 426.53125 297.21875 427.195312 C 297.023438 427.859375 296.800781 428.511719 296.546875 429.152344 C 296.289062 429.792969 296.003906 430.421875 295.6875 431.035156 C 295.371094 431.648438 295.023438 432.246094 294.648438 432.824219 C 294.273438 433.402344 293.871094 433.964844 293.445312 434.503906 C 293.015625 435.046875 292.558594 435.566406 292.082031 436.0625 L 221.898438 506.265625 Z M 467.742188 385.097656 L 382.492188 640.921875 C 382.269531 641.582031 382.019531 642.234375 381.734375 642.871094 C 381.449219 643.511719 381.132812 644.132812 380.789062 644.738281 C 380.441406 645.347656 380.066406 645.933594 379.664062 646.503906 C 379.261719 647.074219 378.828125 647.625 378.371094 648.152344 C 377.914062 648.679688 377.433594 649.183594 376.925781 649.664062 C 376.417969 650.144531 375.886719 650.597656 375.335938 651.027344 C 374.785156 651.457031 374.214844 651.855469 373.621094 652.226562 C 373.03125 652.601562 372.421875 652.941406 371.800781 653.253906 C 371.175781 653.566406 370.535156 653.847656 369.882812 654.097656 C 369.230469 654.347656 368.566406 654.5625 367.894531 654.75 C 367.222656 654.933594 366.539062 655.085938 365.851562 655.203125 C 365.164062 655.320312 364.472656 655.402344 363.773438 655.453125 C 363.078125 655.503906 362.378906 655.515625 361.683594 655.5 C 360.984375 655.480469 360.289062 655.425781 359.59375 655.339844 C 358.902344 655.25 358.214844 655.128906 357.535156 654.976562 C 356.851562 654.820312 356.183594 654.632812 355.519531 654.410156 C 354.855469 654.191406 354.207031 653.9375 353.570312 653.652344 C 352.929688 653.367188 352.308594 653.054688 351.703125 652.707031 C 351.09375 652.359375 350.507812 651.984375 349.9375 651.582031 C 349.367188 651.179688 348.820312 650.746094 348.289062 650.289062 C 347.761719 649.832031 347.257812 649.351562 346.777344 648.84375 C 346.300781 648.335938 345.84375 647.804688 345.417969 647.253906 C 344.988281 646.703125 344.589844 646.128906 344.214844 645.539062 C 343.84375 644.949219 343.5 644.339844 343.191406 643.714844 C 342.878906 643.089844 342.597656 642.453125 342.347656 641.800781 C 342.097656 641.148438 341.878906 640.484375 341.695312 639.808594 C 341.511719 639.136719 341.359375 638.453125 341.242188 637.765625 C 341.125 637.078125 341.042969 636.386719 340.992188 635.6875 C 340.941406 634.992188 340.925781 634.292969 340.945312 633.59375 C 340.964844 632.898438 341.019531 632.203125 341.105469 631.507812 C 341.191406 630.816406 341.3125 630.128906 341.46875 629.445312 C 341.625 628.765625 341.8125 628.09375 342.03125 627.429688 L 427.28125 371.605469 C 427.503906 370.945312 427.757812 370.296875 428.042969 369.65625 C 428.328125 369.019531 428.644531 368.398438 428.988281 367.792969 C 429.335938 367.1875 429.710938 366.601562 430.117188 366.03125 C 430.519531 365.460938 430.949219 364.914062 431.40625 364.386719 C 431.867188 363.859375 432.347656 363.355469 432.855469 362.875 C 433.363281 362.398438 433.890625 361.945312 434.441406 361.515625 C 434.996094 361.089844 435.566406 360.6875 436.15625 360.316406 C 436.746094 359.945312 437.355469 359.605469 437.980469 359.292969 C 438.605469 358.980469 439.242188 358.699219 439.894531 358.453125 C 440.546875 358.203125 441.207031 357.984375 441.882812 357.800781 C 442.554688 357.617188 443.234375 357.46875 443.921875 357.347656 C 444.609375 357.230469 445.304688 357.148438 446 357.101562 C 446.695312 357.050781 447.390625 357.035156 448.089844 357.054688 C 448.789062 357.074219 449.480469 357.128906 450.175781 357.214844 C 450.867188 357.300781 451.554688 357.421875 452.234375 357.578125 C 452.914062 357.734375 453.585938 357.921875 454.246094 358.140625 C 454.910156 358.363281 455.558594 358.613281 456.195312 358.898438 C 456.832031 359.183594 457.457031 359.5 458.0625 359.84375 C 458.667969 360.191406 459.253906 360.5625 459.824219 360.96875 C 460.394531 361.371094 460.941406 361.800781 461.46875 362.257812 C 461.996094 362.714844 462.5 363.199219 462.980469 363.703125 C 463.460938 364.210938 463.914062 364.738281 464.34375 365.292969 C 464.773438 365.84375 465.171875 366.414062 465.542969 367.003906 C 465.917969 367.59375 466.257812 368.203125 466.570312 368.824219 C 466.882812 369.449219 467.164062 370.089844 467.414062 370.738281 C 467.664062 371.390625 467.882812 372.054688 468.066406 372.726562 C 468.25 373.398438 468.402344 374.082031 468.519531 374.769531 C 468.640625 375.457031 468.722656 376.148438 468.773438 376.84375 C 468.824219 377.542969 468.839844 378.238281 468.820312 378.9375 C 468.800781 379.632812 468.75 380.328125 468.664062 381.023438 C 468.578125 381.714844 468.457031 382.402344 468.304688 383.082031 C 468.148438 383.761719 467.960938 384.433594 467.742188 385.097656 Z M 633.082031 521.335938 L 547.832031 606.609375 C 547.332031 607.089844 546.816406 607.546875 546.273438 607.972656 C 545.734375 608.402344 545.175781 608.804688 544.59375 609.179688 C 544.015625 609.554688 543.417969 609.902344 542.804688 610.21875 C 542.191406 610.535156 541.5625 610.820312 540.921875 611.078125 C 540.28125 611.332031 539.628906 611.558594 538.96875 611.75 C 538.304688 611.941406 537.632812 612.101562 536.953125 612.230469 C 536.277344 612.359375 535.59375 612.453125 534.90625 612.511719 C 534.21875 612.574219 533.53125 612.601562 532.839844 612.59375 C 532.148438 612.589844 531.460938 612.550781 530.773438 612.476562 C 530.085938 612.402344 529.40625 612.296875 528.730469 612.160156 C 528.054688 612.019531 527.386719 611.847656 526.726562 611.644531 C 526.066406 611.441406 525.417969 611.203125 524.78125 610.9375 C 524.144531 610.671875 523.523438 610.375 522.917969 610.046875 C 522.308594 609.71875 521.71875 609.363281 521.144531 608.976562 C 520.570312 608.59375 520.019531 608.179688 519.484375 607.742188 C 518.953125 607.304688 518.441406 606.839844 517.953125 606.351562 C 517.464844 605.863281 517.003906 605.351562 516.5625 604.820312 C 516.125 604.285156 515.714844 603.734375 515.328125 603.160156 C 514.945312 602.585938 514.589844 601.996094 514.261719 601.386719 C 513.933594 600.78125 513.636719 600.15625 513.371094 599.519531 C 513.101562 598.882812 512.867188 598.234375 512.664062 597.574219 C 512.460938 596.917969 512.289062 596.25 512.148438 595.570312 C 512.007812 594.894531 511.902344 594.214844 511.832031 593.527344 C 511.757812 592.839844 511.71875 592.152344 511.710938 591.460938 C 511.707031 590.773438 511.734375 590.082031 511.792969 589.394531 C 511.855469 588.707031 511.949219 588.023438 512.078125 587.34375 C 512.203125 586.667969 512.363281 585.996094 512.558594 585.332031 C 512.75 584.667969 512.972656 584.015625 513.230469 583.375 C 513.484375 582.734375 513.773438 582.105469 514.089844 581.492188 C 514.40625 580.878906 514.75 580.285156 515.125 579.703125 C 515.5 579.125 515.902344 578.5625 516.332031 578.023438 C 516.761719 577.480469 517.214844 576.964844 517.695312 576.464844 L 587.875 506.265625 L 517.695312 436.0625 C 517.214844 435.566406 516.761719 435.046875 516.332031 434.503906 C 515.902344 433.964844 515.5 433.402344 515.125 432.824219 C 514.75 432.246094 514.40625 431.648438 514.089844 431.035156 C 513.773438 430.421875 513.484375 429.792969 513.230469 429.152344 C 512.972656 428.511719 512.75 427.859375 512.558594 427.195312 C 512.363281 426.53125 512.203125 425.863281 512.078125 425.183594 C 511.949219 424.503906 511.855469 423.820312 511.796875 423.132812 C 511.734375 422.445312 511.707031 421.757812 511.714844 421.066406 C 511.71875 420.375 511.757812 419.6875 511.832031 419 C 511.902344 418.3125 512.011719 417.632812 512.148438 416.957031 C 512.289062 416.28125 512.460938 415.613281 512.664062 414.953125 C 512.867188 414.292969 513.101562 413.644531 513.371094 413.007812 C 513.636719 412.371094 513.933594 411.75 514.261719 411.140625 C 514.589844 410.53125 514.945312 409.941406 515.328125 409.367188 C 515.714844 408.796875 516.125 408.242188 516.566406 407.710938 C 517.003906 407.175781 517.464844 406.664062 517.953125 406.175781 C 518.441406 405.6875 518.953125 405.226562 519.484375 404.785156 C 520.019531 404.347656 520.574219 403.9375 521.144531 403.550781 C 521.71875 403.167969 522.308594 402.808594 522.917969 402.484375 C 523.523438 402.15625 524.148438 401.859375 524.785156 401.589844 C 525.417969 401.324219 526.066406 401.089844 526.726562 400.882812 C 527.386719 400.679688 528.054688 400.507812 528.730469 400.371094 C 529.40625 400.230469 530.089844 400.125 530.773438 400.050781 C 531.460938 399.980469 532.148438 399.941406 532.839844 399.933594 C 533.53125 399.925781 534.21875 399.953125 534.90625 400.015625 C 535.59375 400.078125 536.277344 400.171875 536.957031 400.296875 C 537.632812 400.425781 538.304688 400.585938 538.96875 400.777344 C 539.628906 400.972656 540.28125 401.195312 540.921875 401.449219 C 541.5625 401.707031 542.191406 401.992188 542.804688 402.308594 C 543.417969 402.625 544.015625 402.972656 544.59375 403.347656 C 545.175781 403.722656 545.734375 404.125 546.273438 404.554688 C 546.816406 404.984375 547.332031 405.4375 547.832031 405.917969 L 633.082031 491.191406 C 633.574219 491.683594 634.042969 492.203125 634.484375 492.742188 C 634.925781 493.28125 635.34375 493.839844 635.730469 494.421875 C 636.117188 495.003906 636.476562 495.601562 636.804688 496.214844 C 637.132812 496.832031 637.433594 497.460938 637.699219 498.105469 C 637.964844 498.753906 638.199219 499.410156 638.402344 500.078125 C 638.605469 500.746094 638.773438 501.421875 638.910156 502.105469 C 639.046875 502.789062 639.148438 503.480469 639.21875 504.175781 C 639.285156 504.871094 639.320312 505.566406 639.320312 506.265625 C 639.320312 506.960938 639.285156 507.660156 639.21875 508.351562 C 639.148438 509.046875 639.046875 509.738281 638.910156 510.421875 C 638.773438 511.105469 638.605469 511.785156 638.402344 512.453125 C 638.199219 513.121094 637.964844 513.777344 637.699219 514.421875 C 637.433594 515.066406 637.132812 515.695312 636.804688 516.3125 C 636.476562 516.925781 636.117188 517.527344 635.730469 518.105469 C 635.34375 518.6875 634.925781 519.246094 634.484375 519.785156 C 634.042969 520.324219 633.574219 520.84375 633.082031 521.335938 Z M 724.574219 207.800781 L 277.011719 207.800781 L 277.011719 69.230469 L 671.292969 69.230469 C 673.039062 69.234375 674.777344 69.320312 676.515625 69.492188 C 678.25 69.664062 679.972656 69.921875 681.683594 70.261719 C 683.394531 70.605469 685.085938 71.027344 686.753906 71.535156 C 688.425781 72.042969 690.066406 72.632812 691.675781 73.300781 C 693.289062 73.96875 694.863281 74.714844 696.402344 75.539062 C 697.941406 76.359375 699.433594 77.257812 700.882812 78.226562 C 702.335938 79.195312 703.734375 80.234375 705.082031 81.34375 C 706.429688 82.449219 707.722656 83.621094 708.957031 84.855469 C 710.1875 86.089844 711.359375 87.378906 712.464844 88.730469 C 713.574219 90.078125 714.613281 91.476562 715.582031 92.929688 C 716.550781 94.378906 717.445312 95.875 718.269531 97.414062 C 719.09375 98.953125 719.839844 100.527344 720.507812 102.140625 C 721.175781 103.75 721.761719 105.390625 722.269531 107.0625 C 722.777344 108.730469 723.203125 110.421875 723.542969 112.132812 C 723.886719 113.84375 724.140625 115.570312 724.3125 117.304688 C 724.488281 119.042969 724.574219 120.78125 724.574219 122.527344 Z M 724.574219 207.800781 " fill-opacity="1" fill-rule="nonzero"/></g></svg>