<svg xmlns="http://www.w3.org/2000/svg" xmlns:xlink="http://www.w3.org/1999/xlink" width="20" height="20" viewBox="0 0 20 20">
  <defs>
    <clipPath id="clip-path">
      <rect id="Rectangle_51" data-name="Rectangle 51" width="20" height="20" fill="#e56b6f"/>
    </clipPath>
  </defs>
  <g id="Mask_Group_27" data-name="Mask Group 27" clip-path="url(#clip-path)">
    <g id="team-leader" transform="translate(0.051)">
      <g id="Team_Leader_1_" transform="translate(1.172)">
        <g id="Group_3828" data-name="Group 3828" transform="translate(0 2.422)">
          <path id="Path_1792" data-name="Path 1792" d="M3.516,7.109A2.344,2.344,0,1,1,5.859,4.766,2.346,2.346,0,0,1,3.516,7.109Z" transform="translate(-1.172 -2.422)" fill="#e56b6f"/>
        </g>
        <g id="Group_3829" data-name="Group 3829" transform="translate(12.969 2.422)">
          <path id="Path_1793" data-name="Path 1793" d="M16.484,7.109a2.344,2.344,0,1,1,2.344-2.344A2.346,2.346,0,0,1,16.484,7.109Z" transform="translate(-14.141 -2.422)" fill="#e56b6f"/>
        </g>
        <g id="Group_3830" data-name="Group 3830" transform="translate(5.898)">
          <path id="Path_1794" data-name="Path 1794" d="M10,5.859a2.93,2.93,0,1,1,2.93-2.93A2.933,2.933,0,0,1,10,5.859Z" transform="translate(-7.07)" fill="#e56b6f"/>
        </g>
        <path id="Path_1795" data-name="Path 1795" d="M10.586,5.919V9.961a.586.586,0,0,1-1.172,0V5.919A4.1,4.1,0,0,0,5.9,9.961v3.516a.586.586,0,0,0,.586.586H7.8l.447,5.4A.586.586,0,0,0,8.828,20h2.344a.586.586,0,0,0,.584-.537l.447-5.4h1.313a.586.586,0,0,0,.586-.586V9.961a4.1,4.1,0,0,0-3.516-4.042Z" transform="translate(-1.172)" fill="#e56b6f"/>
      </g>
      <path id="Path_1796" data-name="Path 1796" d="M4.688,13.555V10.039a5.206,5.206,0,0,1,.618-2.424,3.478,3.478,0,0,0-1.789-.506A3.519,3.519,0,0,0,0,10.625v2.93a.586.586,0,0,0,.586.586h.641l.533,5.332A.586.586,0,0,0,2.344,20H4.688a.586.586,0,0,0,.583-.528l.433-4.33a1.756,1.756,0,0,1-1.016-1.588Z" fill="#e56b6f"/>
      <path id="Path_1797" data-name="Path 1797" d="M20,10.625a3.519,3.519,0,0,0-3.516-3.516,3.478,3.478,0,0,0-1.789.506,5.206,5.206,0,0,1,.618,2.424v3.516A1.756,1.756,0,0,1,14.3,15.143l.433,4.33a.586.586,0,0,0,.583.528h2.344a.586.586,0,0,0,.583-.528l.533-5.332h.641A.586.586,0,0,0,20,13.555Z" fill="#e56b6f"/>
    </g>
  </g>
</svg>
