<svg xmlns="http://www.w3.org/2000/svg" xmlns:xlink="http://www.w3.org/1999/xlink" width="1080" zoomAndPan="magnify" viewBox="0 0 810 809.999993" height="1080" preserveAspectRatio="xMidYMid meet" version="1.0"><defs><clipPath id="id1"><path d="M 0 53.15625 L 106 53.15625 L 106 476 L 0 476 Z M 0 53.15625 " clip-rule="nonzero"/></clipPath><clipPath id="id2"><path d="M 492 53.15625 L 599 53.15625 L 599 476 L 492 476 Z M 492 53.15625 " clip-rule="nonzero"/></clipPath><clipPath id="id3"><path d="M 0 53.15625 L 300 53.15625 L 300 370 L 0 370 Z M 0 53.15625 " clip-rule="nonzero"/></clipPath><clipPath id="id4"><path d="M 299 53.15625 L 599 53.15625 L 599 370 L 299 370 Z M 299 53.15625 " clip-rule="nonzero"/></clipPath><clipPath id="id5"><path d="M 510 440 L 810 440 L 810 756.65625 L 510 756.65625 Z M 510 440 " clip-rule="nonzero"/></clipPath></defs><g clip-path="url(#id1)"><path fill="#f18286" d="M 0.378906 53.15625 L 105.933594 123.507812 L 105.933594 475.257812 L 0.378906 404.90625 Z M 0.378906 53.15625 " fill-opacity="1" fill-rule="nonzero"/></g><path fill="#e56b6f" d="M 809.621094 316.96875 L 704.066406 387.320312 L 704.066406 615.957031 L 809.621094 545.605469 Z M 809.621094 316.96875 " fill-opacity="1" fill-rule="nonzero"/><path fill="#e56b6f" d="M 809.621094 70.742188 L 704.066406 141.09375 L 704.066406 264.207031 L 809.621094 193.855469 Z M 809.621094 70.742188 " fill-opacity="1" fill-rule="nonzero"/><g clip-path="url(#id2)"><path fill="#e56b6f" d="M 598.515625 53.15625 L 492.960938 123.507812 L 492.960938 475.257812 L 598.515625 404.90625 Z M 598.515625 53.15625 " fill-opacity="1" fill-rule="nonzero"/></g><g clip-path="url(#id3)"><path fill="#f18286" d="M 0.378906 176.269531 L 299.445312 369.730469 L 299.445312 246.617188 L 0.378906 53.15625 Z M 0.378906 176.269531 " fill-opacity="1" fill-rule="nonzero"/></g><g clip-path="url(#id4)"><path fill="#e56b6f" d="M 598.515625 176.269531 L 299.445312 369.730469 L 299.445312 246.617188 L 598.515625 53.15625 Z M 598.515625 176.269531 " fill-opacity="1" fill-rule="nonzero"/></g><path fill="#e56b6f" d="M 598.515625 422.492188 L 299.445312 615.957031 L 299.445312 492.84375 L 598.515625 299.382812 Z M 598.515625 422.492188 " fill-opacity="1" fill-rule="nonzero"/><g clip-path="url(#id5)"><path fill="#e56b6f" d="M 809.621094 563.195312 L 510.554688 756.65625 L 510.554688 633.542969 L 809.621094 440.082031 Z M 809.621094 563.195312 " fill-opacity="1" fill-rule="nonzero"/></g><path fill="#f18286" d="M 510.554688 629.410156 L 299.445312 492.84375 L 299.445312 615.957031 L 510.554688 752.523438 Z M 510.554688 629.410156 " fill-opacity="1" fill-rule="nonzero"/></svg>