<svg xmlns="http://www.w3.org/2000/svg" xmlns:xlink="http://www.w3.org/1999/xlink" width="1080" zoomAndPan="magnify" viewBox="0 0 810 809.999993" height="1080" preserveAspectRatio="xMidYMid meet" version="1.0"><path fill="#e56b6f" d="M 405 238.214844 C 373.304688 238.214844 347.554688 263.90625 347.554688 295.660156 C 347.554688 327.355469 373.304688 353.105469 405 353.105469 C 436.695312 353.105469 462.445312 327.355469 462.445312 295.660156 C 462.445312 263.90625 436.695312 238.214844 405 238.214844 " fill-opacity="1" fill-rule="evenodd"/><path fill="#e56b6f" d="M 120.683594 11.289062 C 45.226562 86.6875 2.871094 189.011719 2.871094 295.660156 C 2.871094 402.308594 45.226562 504.578125 120.683594 579.976562 C 131.847656 591.195312 150.078125 591.195312 161.242188 579.976562 C 172.464844 568.757812 172.464844 550.582031 161.242188 539.359375 C 96.617188 474.734375 60.320312 387.046875 60.320312 295.660156 C 60.320312 204.214844 96.617188 116.53125 161.242188 51.902344 C 172.464844 40.683594 172.464844 22.507812 161.242188 11.289062 C 150.078125 0.0664062 131.847656 0.0664062 120.683594 11.289062 " fill-opacity="1" fill-rule="evenodd"/><path fill="#e56b6f" d="M 201.917969 92.519531 C 148.003906 146.378906 117.765625 219.476562 117.765625 295.660156 C 117.765625 371.789062 148.003906 444.886719 201.917969 498.742188 C 213.082031 509.964844 231.3125 509.964844 242.535156 498.742188 C 253.753906 487.523438 253.753906 469.347656 242.535156 458.128906 C 199.449219 415.042969 175.210938 356.585938 175.210938 295.660156 C 175.210938 234.679688 199.449219 176.222656 242.535156 133.136719 C 253.753906 121.917969 253.753906 103.742188 242.535156 92.519531 C 231.3125 81.300781 213.082031 81.300781 201.917969 92.519531 " fill-opacity="1" fill-rule="evenodd"/><path fill="#e56b6f" d="M 283.148438 173.753906 C 250.835938 206.066406 232.660156 249.9375 232.660156 295.660156 C 232.660156 341.324219 250.835938 385.195312 283.148438 417.511719 C 294.3125 428.730469 312.546875 428.730469 323.765625 417.511719 C 334.988281 406.289062 334.988281 388.058594 323.765625 376.894531 C 302.222656 355.296875 290.105469 326.121094 290.105469 295.660156 C 290.105469 265.140625 302.222656 235.914062 323.765625 214.371094 C 334.988281 203.152344 334.988281 184.972656 323.765625 173.753906 C 312.546875 162.535156 294.3125 162.535156 283.148438 173.753906 " fill-opacity="1" fill-rule="evenodd"/><path fill="#e56b6f" d="M 648.757812 51.902344 C 713.382812 116.53125 749.679688 204.214844 749.679688 295.660156 C 749.679688 387.046875 713.382812 474.734375 648.757812 539.359375 C 637.535156 550.582031 637.535156 568.757812 648.757812 579.976562 C 659.921875 591.195312 678.152344 591.195312 689.316406 579.976562 C 764.773438 504.578125 807.128906 402.308594 807.128906 295.660156 C 807.128906 189.011719 764.773438 86.6875 689.316406 11.289062 C 678.152344 0.0664062 659.921875 0.0664062 648.757812 11.289062 C 637.535156 22.507812 637.535156 40.683594 648.757812 51.902344 " fill-opacity="1" fill-rule="evenodd"/><path fill="#e56b6f" d="M 567.464844 133.136719 C 610.550781 176.222656 634.789062 234.679688 634.789062 295.660156 C 634.789062 356.585938 610.550781 415.042969 567.464844 458.128906 C 556.246094 469.347656 556.246094 487.523438 567.464844 498.742188 C 578.6875 509.964844 596.917969 509.964844 608.082031 498.742188 C 661.996094 444.886719 692.234375 371.789062 692.234375 295.660156 C 692.234375 219.476562 661.996094 146.378906 608.082031 92.519531 C 596.917969 81.300781 578.6875 81.300781 567.464844 92.519531 C 556.246094 103.742188 556.246094 121.917969 567.464844 133.136719 " fill-opacity="1" fill-rule="evenodd"/><path fill="#e56b6f" d="M 486.234375 214.371094 C 507.777344 235.914062 519.894531 265.140625 519.894531 295.660156 C 519.894531 326.121094 507.777344 355.296875 486.234375 376.894531 C 475.011719 388.058594 475.011719 406.289062 486.234375 417.511719 C 497.453125 428.730469 515.6875 428.730469 526.851562 417.511719 C 559.164062 385.195312 577.339844 341.324219 577.339844 295.660156 C 577.339844 249.9375 559.164062 206.066406 526.851562 173.753906 C 515.6875 162.535156 497.453125 162.535156 486.234375 173.753906 C 475.011719 184.972656 475.011719 203.152344 486.234375 214.371094 " fill-opacity="1" fill-rule="evenodd"/><path fill="#e56b6f" d="M 376.726562 285.113281 L 290.554688 773.410156 C 287.804688 789.007812 298.242188 803.929688 313.835938 806.679688 C 329.433594 809.429688 344.355469 798.992188 347.105469 783.398438 L 433.273438 295.097656 C 436.023438 279.503906 425.589844 264.582031 409.992188 261.832031 C 394.398438 259.082031 379.472656 269.519531 376.726562 285.113281 " fill-opacity="1" fill-rule="evenodd"/><path fill="#e56b6f" d="M 376.726562 295.097656 L 462.894531 783.398438 C 465.644531 798.992188 480.566406 809.429688 496.164062 806.679688 C 511.757812 803.929688 522.195312 789.007812 519.445312 773.410156 L 433.273438 285.113281 C 430.527344 269.519531 415.601562 259.082031 400.007812 261.832031 C 384.410156 264.582031 373.976562 279.503906 376.726562 295.097656 " fill-opacity="1" fill-rule="evenodd"/><path fill="#e56b6f" d="M 347.554688 749.679688 L 361.914062 749.679688 C 377.792969 749.679688 390.636719 736.832031 390.636719 720.957031 C 390.636719 705.082031 377.792969 692.234375 361.914062 692.234375 L 347.554688 692.234375 C 331.675781 692.234375 318.828125 705.082031 318.828125 720.957031 C 318.828125 736.832031 331.675781 749.679688 347.554688 749.679688 " fill-opacity="1" fill-rule="evenodd"/></svg>