<svg xmlns="http://www.w3.org/2000/svg" xmlns:xlink="http://www.w3.org/1999/xlink" width="25" height="25" viewBox="0 0 25 25">
  <defs>
    <clipPath id="clip-path">
      <rect id="Rectangle_64" data-name="Rectangle 64" width="25" height="25" transform="translate(985 617)" fill="#fff"/>
    </clipPath>
  </defs>
  <g id="Mask_Group_39" data-name="Mask Group 39" transform="translate(-985 -617)" clip-path="url(#clip-path)">
    <path id="rocket-lunch" d="M1.957,18.62A11.726,11.726,0,0,0,.046,22.786a1.811,1.811,0,0,0,2.169,2.168,11.73,11.73,0,0,0,4.16-1.91h0A3.126,3.126,0,1,0,1.957,18.62ZM4.9,21.566h0A10.488,10.488,0,0,1,2.194,22.8a10.519,10.519,0,0,1,1.233-2.708A1.041,1.041,0,1,1,4.9,21.564ZM18.747,8.853a2.6,2.6,0,1,1-2.6-2.6A2.6,2.6,0,0,1,18.747,8.853ZM21.842,0h0A16.13,16.13,0,0,0,8.992,6.255,11.524,11.524,0,0,0,4.234,7.466,8.436,8.436,0,0,0,.253,11.285,3.078,3.078,0,0,0,.513,14.2a3.134,3.134,0,0,0,2.626,1.422H5.728a3.663,3.663,0,0,1,3.645,3.645v2.589a3.134,3.134,0,0,0,1.42,2.626,3.078,3.078,0,0,0,2.916.26,8.436,8.436,0,0,0,3.818-3.981A11.524,11.524,0,0,0,18.739,16,16.15,16.15,0,0,0,25,3.124,3.134,3.134,0,0,0,21.842,0ZM4.526,13.539H3.139a1.041,1.041,0,0,1-.885-.48.989.989,0,0,1-.089-.948,6.432,6.432,0,0,1,3-2.783,9.366,9.366,0,0,1,2.076-.75,35.786,35.786,0,0,0-2.717,4.961ZM15.67,19.828a6.436,6.436,0,0,1-2.782,3,.99.99,0,0,1-.949-.089,1.041,1.041,0,0,1-.48-.885V20.469a35.787,35.787,0,0,0,4.961-2.717,9.366,9.366,0,0,1-.753,2.076Zm.141-4.187a31.162,31.162,0,0,1-4.448,2.574A5.728,5.728,0,0,0,6.78,13.632,31.161,31.161,0,0,1,9.355,9.188C12.862,4.3,16.5,2.236,21.871,2.083A1.041,1.041,0,0,1,22.913,3.1c-.153,5.4-2.212,9.038-7.105,12.546Z" transform="translate(985.002 617)" fill="#fff"/>
  </g>
</svg>
