<svg xmlns="http://www.w3.org/2000/svg" xmlns:xlink="http://www.w3.org/1999/xlink" width="1080" zoomAndPan="magnify" viewBox="0 0 810 809.999993" height="1080" preserveAspectRatio="xMidYMid meet" version="1.0"><path fill="#e56b6f" d="M 667.609375 488.417969 L 667.609375 609.945312 C 667.609375 646.835938 643.882812 677.324219 610.59375 687.320312 L 610.59375 514.375 Z M 505.976562 488.417969 L 562.996094 514.375 L 562.996094 687.320312 C 529.703125 677.324219 505.976562 646.835938 505.976562 609.945312 Z M 304.515625 488.417969 L 304.515625 609.945312 C 304.515625 646.835938 280.785156 677.324219 247.570312 687.320312 L 247.570312 514.375 Z M 142.882812 488.417969 L 199.898438 514.375 L 199.898438 687.320312 C 166.683594 677.324219 142.882812 646.835938 142.882812 609.945312 Z M 667.609375 257.222656 L 667.609375 291.597656 C 667.609375 328.488281 643.882812 358.976562 610.59375 368.972656 L 610.59375 283.113281 Z M 505.976562 257.222656 L 562.996094 283.113281 L 562.996094 368.972656 C 529.703125 358.976562 505.976562 328.488281 505.976562 291.597656 Z M 304.515625 257.222656 L 304.515625 291.597656 C 304.515625 328.488281 280.785156 358.976562 247.570312 368.972656 L 247.570312 283.113281 Z M 142.882812 257.222656 L 199.898438 283.113281 L 199.898438 368.972656 C 166.683594 358.976562 142.882812 328.488281 142.882812 291.597656 Z M 702.40625 49.402344 C 701.042969 68.457031 696.441406 95.714844 681.699219 110.453125 C 666.3125 125.84375 648.84375 135.765625 635.46875 139.433594 C 622.023438 143.101562 615.625 140.65625 613.394531 138.429688 C 612.101562 137.207031 610.808594 134.542969 610.519531 129.941406 C 610.59375 129.007812 610.59375 128 610.519531 126.992188 C 610.664062 124.117188 611.238281 120.523438 612.390625 116.351562 C 616.054688 102.976562 625.980469 85.5 641.363281 70.113281 C 656.105469 55.371094 683.355469 50.769531 702.40625 49.402344 Z M 339.3125 49.402344 C 338.019531 68.457031 333.417969 95.714844 318.605469 110.453125 C 303.292969 125.84375 285.820312 135.765625 272.375 139.433594 C 259 143.101562 252.601562 140.65625 250.375 138.429688 C 249.078125 137.207031 247.714844 134.542969 247.496094 129.941406 C 247.496094 129.007812 247.496094 128 247.496094 126.992188 C 247.640625 124.117188 248.214844 120.59375 249.367188 116.421875 C 253.035156 102.976562 262.957031 85.5 278.269531 70.183594 C 293.082031 55.371094 320.261719 50.769531 339.3125 49.402344 Z M 471.179688 49.402344 C 490.230469 50.769531 517.410156 55.371094 532.222656 70.113281 C 547.535156 85.5 557.53125 102.976562 561.195312 116.351562 C 562.347656 120.59375 562.921875 124.117188 563.066406 126.992188 C 562.996094 128 562.996094 128.9375 563.066406 129.941406 C 562.777344 134.472656 561.414062 137.0625 560.191406 138.429688 C 557.960938 140.65625 551.5625 143.101562 538.117188 139.433594 C 524.671875 135.695312 507.273438 125.773438 491.886719 110.453125 C 477.144531 95.714844 472.542969 68.457031 471.179688 49.402344 Z M 108.15625 49.402344 C 127.207031 50.769531 154.386719 55.371094 169.199219 70.113281 C 184.511719 85.5 194.433594 102.976562 198.101562 116.351562 C 199.253906 120.59375 199.828125 124.117188 199.972656 126.992188 C 199.972656 128 199.972656 129.007812 199.972656 129.941406 C 199.753906 134.472656 198.390625 137.0625 197.09375 138.429688 C 194.867188 140.65625 188.46875 143.101562 175.09375 139.433594 C 161.648438 135.695312 144.175781 125.84375 128.863281 110.453125 C 114.050781 95.714844 109.449219 68.457031 108.15625 49.402344 Z M 104.34375 0.214844 C 90.394531 0.144531 81.265625 1.726562 81.265625 1.726562 C 70.335938 3.019531 61.78125 11.648438 60.414062 22.507812 C 60.414062 22.507812 47.757812 96.648438 95.214844 144.109375 C 115.703125 164.675781 139 178.914062 162.441406 185.3125 C 174.664062 188.691406 187.675781 189.914062 199.898438 187.757812 L 199.898438 230.832031 L 129.007812 198.546875 C 126.058594 197.25 122.964844 196.460938 119.730469 196.386719 C 106.644531 196.027344 95.644531 206.382812 95.355469 219.542969 C 95.285156 219.757812 95.285156 219.972656 95.285156 220.191406 L 95.285156 291.597656 C 95.285156 354.160156 140.511719 406.582031 199.898438 417.800781 L 199.898438 462.023438 L 129.007812 429.738281 C 126.058594 428.441406 122.964844 427.652344 119.730469 427.578125 C 106.644531 427.21875 95.644531 437.574219 95.355469 450.734375 C 95.285156 450.949219 95.285156 451.167969 95.285156 451.382812 L 95.285156 609.945312 C 95.285156 672.507812 140.511719 724.929688 199.898438 736.148438 L 199.898438 762.035156 L 109.59375 762.035156 C 96.433594 761.890625 85.722656 772.460938 85.578125 785.621094 C 85.433594 798.78125 96.003906 809.570312 109.160156 809.710938 C 109.304688 809.710938 109.449219 809.710938 109.59375 809.710938 L 219.816406 809.710938 C 222.402344 810.144531 224.992188 810.144531 227.582031 809.710938 L 582.910156 809.710938 C 585.425781 810.144531 588.085938 810.144531 590.605469 809.710938 L 700.898438 809.710938 C 714.054688 809.785156 724.839844 799.285156 724.914062 786.054688 C 725.058594 772.964844 714.488281 762.179688 701.328125 762.035156 C 701.1875 762.035156 701.042969 762.035156 700.898438 762.035156 L 610.59375 762.035156 L 610.59375 736.148438 C 670.054688 724.929688 715.207031 672.507812 715.207031 609.945312 L 715.207031 451.382812 C 715.207031 438.222656 704.566406 427.507812 691.40625 427.507812 C 688.027344 427.507812 684.648438 428.300781 681.558594 429.738281 L 610.59375 461.953125 L 610.59375 417.800781 C 670.054688 406.582031 715.207031 354.160156 715.207031 291.523438 L 715.207031 220.191406 C 715.207031 207.03125 704.566406 196.316406 691.40625 196.316406 C 688.027344 196.316406 684.648438 197.035156 681.558594 198.472656 L 610.59375 230.761719 L 610.59375 187.6875 C 622.886719 189.84375 635.902344 188.691406 648.050781 185.242188 C 671.492188 178.769531 694.785156 164.601562 715.351562 144.035156 C 762.804688 96.574219 750.078125 22.4375 750.078125 22.4375 C 748.785156 11.503906 740.15625 2.949219 729.296875 1.652344 C 729.296875 1.652344 718.875 -0.144531 703.34375 0.0703125 C 677.386719 0.0703125 637.339844 6.6875 607.714844 36.386719 C 599.734375 44.296875 592.761719 52.636719 586.792969 61.269531 C 580.824219 52.636719 573.851562 44.296875 565.871094 36.386719 C 536.246094 6.6875 496.199219 0.574219 470.242188 0.0703125 C 454.710938 0.0703125 444.289062 1.652344 444.289062 1.652344 C 433.359375 2.949219 424.800781 11.503906 423.507812 22.4375 C 423.507812 22.4375 410.78125 96.574219 458.234375 144.035156 C 478.800781 164.601562 502.09375 178.839844 525.535156 185.242188 C 537.683594 188.621094 550.699219 189.84375 562.996094 187.6875 L 562.996094 230.761719 L 492.027344 198.472656 C 489.152344 197.179688 485.988281 196.386719 482.824219 196.316406 C 469.667969 195.957031 458.738281 206.3125 458.378906 219.472656 C 458.378906 219.6875 458.378906 219.902344 458.378906 220.117188 L 458.378906 291.523438 C 458.378906 354.085938 503.53125 406.511719 562.996094 417.726562 L 562.996094 461.953125 L 492.027344 429.664062 C 489.152344 428.371094 485.988281 427.578125 482.824219 427.507812 C 469.667969 427.148438 458.738281 437.503906 458.378906 450.664062 C 458.378906 450.878906 458.378906 451.09375 458.378906 451.308594 L 458.378906 609.871094 C 458.378906 672.433594 503.53125 724.859375 562.996094 736.003906 L 562.996094 761.964844 L 247.570312 761.964844 L 247.570312 736.003906 C 306.957031 724.859375 352.183594 672.433594 352.183594 609.871094 L 352.183594 451.308594 C 352.183594 438.152344 341.46875 427.4375 328.382812 427.4375 C 324.933594 427.4375 321.625 428.226562 318.460938 429.59375 L 247.570312 461.953125 L 247.570312 417.726562 C 306.957031 406.511719 352.183594 354.085938 352.183594 291.453125 L 352.183594 220.117188 C 352.183594 206.886719 341.46875 196.242188 328.382812 196.242188 C 324.933594 196.242188 321.625 196.964844 318.460938 198.402344 L 247.570312 230.6875 L 247.570312 187.613281 C 259.792969 189.773438 272.804688 188.621094 284.957031 185.167969 C 308.46875 178.699219 331.765625 164.460938 352.253906 143.964844 C 399.710938 96.503906 387.054688 22.363281 387.054688 22.363281 C 385.761719 11.433594 377.132812 2.875 366.203125 1.582031 C 366.203125 1.582031 355.777344 -0.214844 340.25 0 C 314.363281 0 274.316406 6.617188 244.621094 36.316406 C 236.710938 44.226562 229.738281 52.566406 223.769531 61.195312 C 217.800781 52.566406 210.757812 44.226562 202.847656 36.316406 C 173.152344 6.617188 133.105469 0.503906 107.21875 0 C 106.214844 0 105.277344 0 104.34375 0 L 104.34375 0.214844 " fill-opacity="1" fill-rule="nonzero"/></svg>