<svg xmlns="http://www.w3.org/2000/svg" xmlns:xlink="http://www.w3.org/1999/xlink" width="1080" zoomAndPan="magnify" viewBox="0 0 810 809.999993" height="1080" preserveAspectRatio="xMidYMid meet" version="1.0"><path fill="#e56b6f" d="M 271.535156 488.957031 L 329.375 264.753906 C 332.449219 252.8125 343.574219 243.378906 355.75 245.050781 C 368.089844 245.507812 378.4375 254.484375 380.644531 266.613281 L 433.960938 559.925781 L 463.597656 503.082031 C 468.121094 494.347656 477.121094 488.929688 486.929688 488.929688 L 697.417969 488.929688 L 752.648438 427.664062 C 754.535156 425.480469 756.070312 423.054688 757.203125 420.496094 C 786.730469 370.199219 809.171875 326.640625 809.171875 268.984375 C 809.171875 144.703125 706.496094 39.742188 584.992188 39.742188 C 511.984375 39.742188 446.488281 72.679688 405.132812 128.015625 C 363.214844 71.035156 296.5625 36.023438 225.113281 36.023438 C 103.609375 36.023438 0.9375 142.949219 0.9375 269.578125 C 0.9375 326.75 22.300781 368.417969 52.71875 420.171875 C 53.847656 422.894531 55.4375 425.398438 57.460938 427.664062 L 112.769531 488.902344 Z M 271.535156 488.957031 " fill-opacity="1" fill-rule="nonzero"/><path fill="#e56b6f" d="M 502.902344 541.542969 L 445.277344 652.269531 C 440.671875 661.058594 431.644531 666.421875 421.945312 666.421875 C 420.597656 666.421875 419.25 666.289062 418.011719 666.070312 C 406.886719 664.398438 398.074219 655.828125 396.109375 644.777344 L 350.417969 393.675781 L 317.359375 521.707031 C 314.371094 533.324219 303.890625 541.4375 291.902344 541.4375 L 160.265625 541.4375 L 385.980469 791.246094 C 390.992188 796.742188 398.074219 799.871094 405.484375 799.871094 L 405.511719 799.871094 C 412.949219 799.871094 420.085938 796.742188 425.015625 791.191406 L 650.082031 541.4375 Z M 502.902344 541.542969 " fill-opacity="1" fill-rule="nonzero"/></svg>