<svg xmlns="http://www.w3.org/2000/svg" xmlns:xlink="http://www.w3.org/1999/xlink" width="26" height="24" viewBox="0 0 26 24">
  <defs>
    <clipPath id="clip-path">
      <rect id="Rectangle_21" data-name="Rectangle 21" width="26" height="24" transform="translate(-0.411 0.03)" fill="#b56576"/>
    </clipPath>
  </defs>
  <g id="Mask_Group_11" data-name="Mask Group 11" transform="translate(0.411 -0.03)" clip-path="url(#clip-path)">
    <g id="email" transform="translate(0.455 3.581)">
      <g id="Group_43" data-name="Group 43" transform="translate(1.247 9.572)">
        <g id="Group_42" data-name="Group 42">
          <path id="Path_15" data-name="Path 15" d="M16.53,21.119l-2.04,2.046a2.258,2.258,0,0,1-3.127,0l-2.04-2.046L2,28.468a2.119,2.119,0,0,0,.893.2H22.963a2.118,2.118,0,0,0,.893-.2Z" transform="translate(-1.998 -21.119)" fill="#b56576"/>
        </g>
      </g>
      <g id="Group_45" data-name="Group 45" transform="translate(1.248)">
        <g id="Group_44" data-name="Group 44">
          <path id="Path_16" data-name="Path 16" d="M22.963,5.789H2.891A2.119,2.119,0,0,0,2,5.99l7.828,7.854h0L12.373,16.4a.857.857,0,0,0,1.107,0l2.545-2.553v0h0L23.856,5.99A2.117,2.117,0,0,0,22.963,5.789Z" transform="translate(-1.998 -5.789)" fill="#b56576"/>
        </g>
      </g>
      <g id="Group_47" data-name="Group 47" transform="translate(0 1.199)">
        <g id="Group_46" data-name="Group 46">
          <path id="Path_17" data-name="Path 17" d="M.228,7.71A2.114,2.114,0,0,0,0,8.651V21.493a2.113,2.113,0,0,0,.228.941l7.338-7.362Z" transform="translate(0 -7.71)" fill="#b56576"/>
        </g>
      </g>
      <g id="Group_49" data-name="Group 49" transform="translate(16.787 1.199)">
        <g id="Group_48" data-name="Group 48">
          <path id="Path_18" data-name="Path 18" d="M34.222,7.709l-7.338,7.363,7.338,7.362a2.114,2.114,0,0,0,.228-.941V8.651A2.114,2.114,0,0,0,34.222,7.709Z" transform="translate(-26.884 -7.709)" fill="#b56576"/>
        </g>
      </g>
    </g>
  </g>
</svg>
