<svg xmlns="http://www.w3.org/2000/svg" xmlns:xlink="http://www.w3.org/1999/xlink" width="26" height="24" viewBox="0 0 26 24">
  <defs>
    <clipPath id="clip-path">
      <rect id="Rectangle_17" data-name="Rectangle 17" width="26" height="24" transform="translate(-0.371 0.03)" fill="#b56576"/>
    </clipPath>
  </defs>
  <g id="Mask_Group_7" data-name="Mask Group 7" transform="translate(0.371 -0.03)" clip-path="url(#clip-path)">
    <path id="github" d="M14.319,1.888A12.178,12.178,0,0,1,17.94,25.693l-.187.048v-3.1a2.994,2.994,0,0,0-.663-1.418,7.352,7.352,0,0,0,3.72-1.491,5.776,5.776,0,0,0,1.54-4.181v-.9a5.839,5.839,0,0,0-.948-2.387q-.107,0-.225-.23a4.3,4.3,0,0,0,.225-1.273v-.145q-.166-1.794-.509-1.794A5.97,5.97,0,0,0,17.824,10.1a10.934,10.934,0,0,0-2.192-.376h-1.6a15.681,15.681,0,0,0-2.12.376A5.646,5.646,0,0,0,8.774,8.824a4.605,4.605,0,0,0-.438,1.866v.158q.213,1.115.213,1.188a5.559,5.559,0,0,0-1.161,3.357q0,3.648,2.63,5.005a6.409,6.409,0,0,0,2.4.751h.213v.145a4.118,4.118,0,0,0-.723,1.563,4.286,4.286,0,0,1-1.457.23h-.083q-1.066,0-2.18-1.866a2.408,2.408,0,0,0-1.54-.679l-.367.158q0,.206,1.1,1.188a12.826,12.826,0,0,1,1.019,1.866,3.318,3.318,0,0,0,2.488.824,6.426,6.426,0,0,1,1.019-.073l.071.145v1.36l-.119-.018A12.178,12.178,0,0,1,14.319,1.888Z" transform="translate(-1.732 -1.922)" fill="#b56576" fill-rule="evenodd"/>
  </g>
</svg>
